<svg width="500" height="512" viewBox="0 0 500 512" fill="none" xmlns="http://www.w3.org/2000/svg">
<g clip-path="url(#clip0)">
<path d="M81.4738 337.21C95.4277 337.21 106.74 325.897 106.74 311.942C106.74 297.987 95.4277 286.674 81.4738 286.674C67.5199 286.674 56.208 297.987 56.208 311.942C56.208 325.897 67.5199 337.21 81.4738 337.21Z" fill="#E8C556"/>
<path d="M53.3862 396.474C67.3401 396.474 78.6519 385.162 78.6519 371.207C78.6519 357.252 67.3401 345.939 53.3862 345.939C39.4322 345.939 28.1204 357.252 28.1204 371.207C28.1204 385.162 39.4322 396.474 53.3862 396.474Z" fill="#E8C556"/>
<path d="M25.2821 455.755C39.236 455.755 50.5479 444.442 50.5479 430.487C50.5479 416.532 39.236 405.219 25.2821 405.219C11.3282 405.219 0.0163574 416.532 0.0163574 430.487C0.0163574 444.442 11.3282 455.755 25.2821 455.755Z" fill="#E8C556"/>
<path d="M140.766 365.332C154.72 365.332 166.032 354.02 166.032 340.065C166.032 326.11 154.72 314.797 140.766 314.797C126.812 314.797 115.5 326.11 115.5 340.065C115.5 354.02 126.812 365.332 140.766 365.332Z" fill="#E8C556"/>
<path d="M112.662 424.597C126.616 424.597 137.928 413.284 137.928 399.329C137.928 385.374 126.616 374.061 112.662 374.061C98.7084 374.061 87.3965 385.374 87.3965 399.329C87.3965 413.284 98.7084 424.597 112.662 424.597Z" fill="#E8C556"/>
<path d="M84.5583 483.861C98.5122 483.861 109.824 472.548 109.824 458.593C109.824 444.638 98.5122 433.326 84.5583 433.326C70.6044 433.326 59.2925 444.638 59.2925 458.593C59.2925 472.548 70.6044 483.861 84.5583 483.861Z" fill="#E8C556"/>
<path d="M200.059 393.455C214.013 393.455 225.325 382.142 225.325 368.187C225.325 354.232 214.013 342.919 200.059 342.919C186.105 342.919 174.793 354.232 174.793 368.187C174.793 382.142 186.105 393.455 200.059 393.455Z" fill="#E8C556"/>
<path d="M171.955 452.72C185.909 452.72 197.221 441.407 197.221 427.452C197.221 413.497 185.909 402.184 171.955 402.184C158.001 402.184 146.689 413.497 146.689 427.452C146.689 441.407 158.001 452.72 171.955 452.72Z" fill="#E8C556"/>
<path d="M143.851 511.984C157.805 511.984 169.117 500.671 169.117 486.716C169.117 472.761 157.805 461.448 143.851 461.448C129.897 461.448 118.585 472.761 118.585 486.716C118.585 500.671 129.897 511.984 143.851 511.984Z" fill="#E8C556"/>
<path d="M478.343 216.745L233.429 384.267C210.756 399.772 179.83 393.964 164.326 371.288L78.1761 245.31C62.6721 222.635 68.4799 191.707 91.1535 176.202L336.051 8.67969C358.725 -6.82552 389.651 -1.01722 405.155 21.6581L491.304 147.636C506.808 170.311 501.001 201.256 478.343 216.745Z" fill="#1F2026"/>
<path d="M332.245 11.2884L94.927 173.609C70.1698 190.542 63.8205 224.358 80.7519 249.117L135.91 329.76C152.841 354.52 186.655 360.869 211.412 343.937L448.73 181.616C473.487 164.683 479.836 130.867 462.905 106.108L407.747 25.4646C390.816 0.68906 357.018 -5.66069 332.245 11.2884Z" fill="#1F2026"/>
<path d="M281.648 358.26L266.948 368.318C261.205 372.256 253.363 370.779 249.426 365.037L114.877 168.26C110.94 162.517 112.416 154.674 118.158 150.737L132.858 140.679C138.601 136.741 146.443 138.218 150.38 143.96L284.945 340.721C288.866 346.48 287.39 354.322 281.648 358.26Z" fill="#DAB11B"/>
<path d="M451.306 242.209L436.606 252.267C430.863 256.205 423.021 254.728 419.084 248.986L284.535 52.2253C280.598 46.4826 282.074 38.6398 287.816 34.702L302.516 24.6441C308.259 20.7063 316.101 22.183 320.038 27.9256L454.603 224.686C458.524 230.429 457.064 238.271 451.306 242.209Z" fill="#DAB11B"/>
<path d="M426.811 206.392L412.111 216.449C406.369 220.387 398.526 218.911 394.589 213.168L284.535 52.2419C280.598 46.4993 282.074 38.6564 287.816 34.7186L302.516 24.6607C308.259 20.7229 316.101 22.1996 320.038 27.9422L430.092 188.868C434.03 194.611 432.553 202.454 426.811 206.392Z" fill="#E8C556"/>
<path d="M173.202 87.3632L165.429 92.6797L180.664 114.958L188.437 109.641L173.202 87.3632Z" fill="#1F2026"/>
<path d="M231.279 47.6406L223.506 52.957L238.741 75.235L246.514 69.9186L231.279 47.6406Z" fill="#1F2026"/>
<path d="M233.758 45.9579L162.948 94.3769C160.635 95.952 157.501 95.3613 155.909 93.0642L152.12 87.5185C150.545 85.205 151.135 82.0711 153.432 80.4796L224.242 32.0443C226.555 30.4691 229.689 31.0598 231.28 33.3569L235.07 38.9026C236.662 41.2325 236.071 44.3664 233.758 45.9579Z" fill="#DAB11B"/>
<path d="M223.405 53.0294L162.948 94.3766C160.635 95.9518 157.501 95.3611 155.909 93.064L152.12 87.5182C150.545 85.2048 151.135 82.0709 153.432 80.4794L213.89 39.1322C216.203 37.557 219.336 38.1477 220.928 40.4448L224.718 45.9905C226.293 48.304 225.702 51.4543 223.405 53.0294Z" fill="#E8C556"/>
<path d="M154.22 225.818L214.021 237.041L208.656 229.182L148.855 217.959L154.22 225.818Z" fill="#E8C556"/>
<path d="M260.434 304.903L243.175 279.668L183.374 268.445L224.915 329.186C228.852 334.929 236.694 336.406 242.437 332.468L257.137 322.41C262.895 318.505 264.372 310.662 260.434 304.903Z" fill="#E8C556"/>
<path d="M134.926 197.548L194.694 208.771L150.38 143.977C146.443 138.234 138.601 136.758 132.858 140.695L118.158 150.753C112.416 154.691 110.94 162.534 114.877 168.277L134.926 197.597V197.548Z" fill="#E8C556"/>
</g>
<defs>
<clipPath id="clip0">
<rect width="500" height="512" fill="white"/>
</clipPath>
</defs>
</svg>
