<svg width="542" height="304" viewBox="0 0 542 304" fill="none" xmlns="http://www.w3.org/2000/svg">
<g clip-path="url(#clip0)">
<path d="M281.653 5.78543C282.148 5.78543 282.538 5.48567 282.538 5.14095C282.538 4.79623 282.133 4.51146 281.653 4.52644C281.159 4.52644 280.769 4.8262 280.769 5.17093C280.769 5.51565 281.174 5.80042 281.653 5.78543Z" fill="#1F2026"/>
<path d="M258.757 13.924C257.768 14.0738 257.063 14.2537 256.643 14.4785C256.133 14.7483 255.863 15.078 255.878 15.4377C255.878 15.7375 256.013 15.9623 256.283 16.1122C256.553 16.2471 256.913 16.322 257.363 16.322C257.798 16.322 258.172 16.2471 258.472 16.0972C258.727 15.9773 258.997 15.8274 259.267 15.6326C259.387 15.5426 259.447 15.4377 259.447 15.3178L259.432 14.3436C259.432 14.0588 259.102 13.864 258.757 13.924Z" fill="#1F2026"/>
<path d="M496.642 112.77L495.038 112.53C473.686 109.353 454.028 100.615 438.764 87.4853L391.712 47.0629C372.699 30.7111 346.699 21.7183 319.679 22.123L301.356 22.3928L299.077 12.9804C297.218 5.30654 289.271 -0.134073 280.109 -0.01417L239.175 0.540383C229.743 0.675274 221.766 6.65545 220.372 14.659L218.812 23.6218L197.461 23.9365C170.171 24.3412 144.201 34.3082 125.593 51.4993L68.6893 104.092C60.2924 111.841 48.6119 116.367 36.3015 116.637C15.8942 117.056 -0.359617 131.58 0.000246856 149.086L1.10983 201.813C1.69461 229.256 26.99 251.153 58.4781 252.457C58.4781 252.517 58.4631 252.592 58.4781 252.652C59.0929 281.714 87.0873 304.69 121.004 303.971C154.922 303.251 181.926 279.121 181.312 250.059L366.702 246.147C367.316 275.209 395.311 298.185 429.228 297.466C463.145 296.747 490.15 272.616 489.535 243.555C489.535 243.42 489.505 243.3 489.505 243.165C519.599 239.478 542.54 217.041 541.985 190.392L541.295 157.449C540.831 135.267 522.133 116.562 496.642 112.77ZM281.639 3.29816C283.063 3.28317 284.233 4.09252 284.248 5.1117C284.263 6.13088 283.108 6.98519 281.684 7.00018C280.259 7.01517 279.09 6.20582 279.075 5.18664C279.06 4.16746 280.199 3.32814 281.639 3.29816ZM265.7 17.5067L268.924 13.4C269.028 13.2651 269.028 13.1003 268.924 12.9654L265.88 9.3233C265.64 9.03853 265.925 8.67882 266.374 8.67882L269.118 8.63386C269.328 8.63386 269.523 8.7088 269.628 8.84369L270.603 10.1327L270.618 10.1476C270.798 10.4024 270.963 10.6722 271.158 10.942C271.338 11.2118 271.533 11.4816 271.727 11.7513H271.832C271.967 11.4816 272.117 11.2118 272.267 10.927C272.417 10.6572 272.567 10.3725 272.702 10.1027L273.422 8.8287C273.512 8.66384 273.722 8.55892 273.947 8.55892L276.526 8.52894C276.96 8.52894 277.245 8.87367 277.035 9.15844L273.992 13.2202C273.887 13.3551 273.902 13.5199 274.007 13.6548L277.26 17.3418C277.5 17.6266 277.23 17.9863 276.781 18.0013L274.052 18.0463C273.842 18.0463 273.662 17.9713 273.557 17.8364L272.462 16.5025C272.252 16.2327 272.042 15.963 271.847 15.6932C271.652 15.4234 271.443 15.1386 271.233 14.8838H271.128C270.978 15.1536 270.813 15.4234 270.648 15.7082C270.483 15.9779 270.318 16.2627 270.168 16.5475L269.328 17.8814C269.238 18.0313 269.028 18.1212 268.804 18.1362L266.225 18.1662C265.745 18.1362 265.475 17.7915 265.7 17.5067ZM258.907 11.1518C258.607 10.912 258.098 10.7921 257.378 10.8071C256.823 10.8221 256.268 10.897 255.729 11.0619C255.339 11.1818 254.919 11.3317 254.484 11.4966C254.199 11.6165 253.854 11.5415 253.704 11.3317L252.865 10.2376C252.715 10.0277 252.805 9.77294 253.089 9.65304C253.764 9.36827 254.469 9.12846 255.189 8.93362C256.088 8.69381 257.063 8.55892 258.083 8.54393C259.747 8.51396 261.022 8.84369 261.891 9.53314C262.776 10.2076 263.226 11.2867 263.226 12.7406L263.271 17.7315C263.271 17.9713 263.016 18.1662 262.701 18.1662L260.632 18.1962C260.362 18.1962 260.122 18.0613 260.062 17.8664L259.882 17.2369H259.777C259.222 17.5966 258.652 17.8964 258.038 18.1362C257.438 18.361 256.763 18.4959 256.043 18.4959C255.459 18.5109 254.919 18.436 254.439 18.3011C253.959 18.1662 253.554 17.9713 253.224 17.7016C252.895 17.4468 252.64 17.147 252.445 16.8023C252.265 16.4576 252.16 16.0829 252.16 15.6782C252.145 14.689 252.715 13.9096 253.854 13.3251C254.904 12.8005 256.538 12.4108 258.772 12.171C259.132 12.126 259.357 11.8563 259.252 11.6165C259.207 11.4516 259.072 11.2867 258.907 11.1518ZM242.069 9.53314C242.069 9.30832 242.294 9.12846 242.593 9.09849L243.568 9.02355C243.838 9.00856 244.063 8.84369 244.093 8.64885L244.393 6.83531C244.423 6.62548 244.678 6.46061 244.963 6.46061L247.047 6.43064C247.362 6.43064 247.632 6.61049 247.632 6.8503L247.647 8.51396C247.647 8.75376 247.901 8.93362 248.231 8.93362L250.166 8.90364C250.48 8.90364 250.75 9.0835 250.75 9.3233L250.765 10.6722C250.765 10.912 250.51 11.1069 250.196 11.1069L248.261 11.1368C247.946 11.1368 247.692 11.3317 247.692 11.5715L247.722 14.9438C247.722 15.4833 247.886 15.858 248.186 16.0978C248.486 16.3227 248.891 16.4426 249.401 16.4276C249.611 16.4276 249.821 16.3976 250.031 16.3676C250.346 16.3077 250.675 16.4426 250.75 16.6824L251.11 17.8664C251.17 18.0912 250.99 18.3161 250.69 18.376C250.48 18.421 250.256 18.4659 250.001 18.5109C249.536 18.6008 248.996 18.6458 248.366 18.6458C247.572 18.6608 246.897 18.5709 246.327 18.406C245.757 18.2411 245.307 18.0013 244.948 17.6866C244.588 17.3718 244.333 16.9971 244.153 16.5475C243.988 16.0978 243.898 15.6032 243.898 15.0487L243.868 11.6314C243.868 11.3916 243.613 11.2118 243.283 11.2118L242.668 11.2268C242.354 11.2268 242.084 11.0469 242.084 10.8071L242.069 9.53314ZM235.426 5.68124L237.6 4.19744C237.72 4.10751 237.915 4.10751 238.035 4.19744L238.83 4.70703L239.805 5.32153L240.269 5.62129C240.449 5.74119 240.344 5.95102 240.104 5.95102H239.924C239.85 5.95102 239.79 5.99599 239.79 6.05594L239.805 7.55473C239.805 7.79454 239.535 8.00437 239.205 8.00437L236.551 8.04933C236.221 8.04933 235.936 7.85449 235.936 7.61468L235.921 6.11589C235.921 6.05594 235.861 6.01097 235.786 6.02596H235.606C235.366 6.01097 235.261 5.80114 235.426 5.68124ZM120.36 273.785C105.905 274.085 93.9697 264.298 93.7148 251.918C93.4599 239.538 104.961 229.256 119.415 228.941C133.87 228.642 145.805 238.429 146.06 250.809C146.33 263.189 134.814 273.485 120.36 273.785ZM261.096 61.1066L261.711 90.1232C262.056 106.34 251.92 106.55 239.415 106.82L117.151 108.708C111.963 108.813 108.994 104.587 112.173 101.619L141.292 74.3709C160.395 56.4903 189.708 45.699 220.927 45.0395L238.14 45.3693C260.842 46.6882 260.902 52.1438 261.096 61.1066ZM283.138 22.8874L236.686 23.6068C236.371 23.6068 236.101 23.4269 236.101 23.1871L236.056 17.8514L236.071 17.8964L235.981 9.36827C235.981 9.12846 236.236 8.93362 236.551 8.93362L239.22 8.88865C239.535 8.88865 239.805 9.06851 239.805 9.30832L239.895 17.8514L239.88 17.8065L239.909 20.4893C239.909 20.7291 240.179 20.909 240.494 20.909L279.315 20.2645C279.629 20.2645 279.884 20.0696 279.884 19.8298L279.869 17.4168L279.794 8.67882C279.794 8.43902 280.049 8.24417 280.364 8.24417L283.033 8.19921C283.348 8.19921 283.618 8.37907 283.618 8.61887L283.693 17.3718L283.738 22.4527C283.723 22.6925 283.468 22.8874 283.138 22.8874ZM297.068 104.901C290.635 105.036 285.327 100.899 285.222 95.6387L284.398 56.5203C284.278 51.0497 289.616 46.5083 296.318 46.3734L326.922 45.729C349.413 45.2494 370.855 53.163 385.19 67.1917L413.814 95.2341C416.723 98.0818 414.279 102.443 409.72 102.533L297.068 104.901ZM427.144 267.31C412.689 267.61 400.754 257.823 400.499 245.443C400.244 233.063 411.744 222.781 426.199 222.467C440.654 222.167 452.589 231.954 452.844 244.334C453.114 256.729 441.598 267.011 427.144 267.31Z" fill="#1F2026"/>
</g>
<defs>
<clipPath id="clip0">
<rect width="542" height="304" fill="white"/>
</clipPath>
</defs>
</svg>
