<svg width="556" height="509" viewBox="0 0 556 509" fill="none" xmlns="http://www.w3.org/2000/svg">
<path d="M478.671 334.661H84.5663C69.4201 334.661 57.1338 322.384 57.1338 307.249V82.6834C57.1338 67.5484 69.4201 55.2712 84.5663 55.2712H478.671C493.818 55.2712 506.104 67.5484 506.104 82.6834V307.265C506.088 322.4 493.818 334.661 478.671 334.661Z" fill="#E6E6E6"/>
<path d="M50.9988 260.95C49.6568 260.183 49.2094 258.475 49.9763 257.134L146.877 89.4204C147.644 88.0793 149.353 87.6323 150.695 88.3986C152.037 89.165 152.485 90.8732 151.718 92.2143L54.8173 259.928C54.0345 261.269 52.3249 261.732 50.9988 260.95Z" fill="#C7C7C7"/>
<path d="M84.6304 136.055C83.2884 135.288 82.841 133.58 83.6079 132.239L111.839 83.3857C112.606 82.0447 114.316 81.5976 115.658 82.364C117 83.1303 117.447 84.8386 116.68 86.1796L88.4489 135.017C87.682 136.358 85.9725 136.821 84.6304 136.055Z" fill="#C7C7C7"/>
<path d="M86.8831 262.929C85.541 262.163 85.0937 260.455 85.8606 259.114L178.831 98.2012C179.598 96.8601 181.307 96.4131 182.649 97.1794C183.991 97.9457 184.439 99.654 183.672 100.995L90.7016 261.908C89.9347 263.233 88.2252 263.696 86.8831 262.929Z" fill="#C7C7C7"/>
<path d="M136.172 264.478C134.83 263.712 134.383 262.004 135.15 260.662L228.12 99.75C228.887 98.4089 230.596 97.9619 231.938 98.7282C233.28 99.4946 233.728 101.203 232.961 102.544L139.991 263.456C139.208 264.797 137.498 265.26 136.172 264.478Z" fill="#C7C7C7"/>
<path d="M47.0365 194.647C47.5638 193.194 49.1615 192.443 50.6154 192.954L233.137 258.092C234.591 258.619 235.342 260.215 234.83 261.668C234.303 263.121 232.705 263.871 231.251 263.361L48.7301 198.223C47.2762 197.696 46.5093 196.1 47.0365 194.647Z" fill="#C7C7C7"/>
<path d="M38.8882 262.067C38.8882 260.519 40.1344 259.273 41.6842 259.273H235.501C237.051 259.273 238.297 260.519 238.297 262.067C238.297 263.616 237.051 264.861 235.501 264.861H41.6842C40.1504 264.861 38.8882 263.616 38.8882 262.067Z" fill="#C7C7C7"/>
<path d="M59.818 344.431C59.163 343.043 59.7541 341.366 61.1441 340.712L236.22 257.629C237.61 256.975 239.288 257.565 239.943 258.954C240.598 260.343 240.007 262.02 238.617 262.674L63.5407 345.757C62.1507 346.427 60.4731 345.836 59.818 344.431Z" fill="#C7C7C7"/>
<path d="M228.392 429.094C226.842 429.094 225.596 427.849 225.596 426.301V262.067C225.596 260.519 226.842 259.273 228.392 259.273C229.941 259.273 231.188 260.519 231.188 262.067V426.301C231.188 427.849 229.941 429.094 228.392 429.094Z" fill="#C7C7C7"/>
<path d="M231.779 423.97C230.58 424.944 228.823 424.768 227.848 423.571L98.3386 264.414C97.364 263.217 97.5397 261.461 98.738 260.487C99.9363 259.513 101.694 259.689 102.668 260.886L232.178 420.042C233.169 421.224 232.977 422.996 231.779 423.97Z" fill="#C7C7C7"/>
<path d="M256.176 409.665C254.977 410.639 253.22 410.463 252.245 409.266L134.527 264.606C133.552 263.408 133.728 261.652 134.926 260.678C136.124 259.705 137.882 259.88 138.856 261.078L256.575 405.753C257.566 406.935 257.374 408.707 256.176 409.665Z" fill="#C7C7C7"/>
<path d="M280.588 395.376C279.39 396.35 277.633 396.174 276.658 394.977L170.475 264.494C169.5 263.297 169.676 261.54 170.874 260.567C172.073 259.593 173.83 259.768 174.805 260.966L280.988 391.449C281.962 392.646 281.787 394.402 280.588 395.376Z" fill="#C7C7C7"/>
<path d="M72.7434 139.184C55.68 139.184 43.7292 134.554 43.4576 134.442C41.8279 133.787 41.0291 131.919 41.6841 130.291C42.3392 128.663 44.2085 127.864 45.8381 128.519C48.1708 129.461 103.595 150.726 144.704 92.9167C145.726 91.4799 147.724 91.1446 149.161 92.1664C150.599 93.1881 150.935 95.1838 149.912 96.6206C125.1 131.504 94.6958 139.184 72.7434 139.184Z" fill="#C7C7C7"/>
<path d="M187.49 102.097H94.9514C87.9855 102.097 82.3296 96.4453 82.3296 89.4845C82.3296 82.5237 87.9855 76.8721 94.9514 76.8721H187.49C194.456 76.8721 200.112 82.5237 200.112 89.4845C200.112 96.4453 194.456 102.097 187.49 102.097Z" fill="#1F2026"/>
<path d="M324.893 102.097H232.354C225.388 102.097 219.732 96.4453 219.732 89.4845C219.732 82.5237 225.388 76.8721 232.354 76.8721H324.893C331.859 76.8721 337.514 82.5237 337.514 89.4845C337.514 96.4453 331.859 102.097 324.893 102.097Z" fill="#1F2026"/>
<path d="M329.526 153.936H227.736C223.327 153.936 219.748 150.36 219.748 145.953V136.693C219.748 132.287 223.327 128.711 227.736 128.711H329.526C333.936 128.711 337.514 132.287 337.514 136.693V145.953C337.514 150.36 333.936 153.936 329.526 153.936Z" fill="#1F2026"/>
<path d="M439.416 140.685H398.099C394.792 140.685 392.108 138.003 392.108 134.698C392.108 131.393 394.792 128.711 398.099 128.711H439.416C442.723 128.711 445.407 131.393 445.407 134.698C445.407 138.019 442.723 140.685 439.416 140.685Z" fill="#D4D4D4"/>
<path d="M250.088 311.991H227.72C223.311 311.991 219.732 308.414 219.732 304.008V294.748C219.732 290.342 223.311 286.766 227.72 286.766H250.088C254.498 286.766 258.077 290.342 258.077 294.748V304.008C258.077 308.414 254.498 311.991 250.088 311.991Z" fill="#4D5060"/>
<path d="M329.973 311.991H272.456C268.046 311.991 264.468 308.414 264.468 304.008V294.748C264.468 290.342 268.046 286.766 272.456 286.766H329.973C334.383 286.766 337.962 290.342 337.962 294.748V304.008C337.962 308.414 334.383 311.991 329.973 311.991Z" fill="#E8C556"/>
<path d="M329.526 183.359H227.736C223.327 183.359 219.748 179.783 219.748 175.377V166.117C219.748 161.711 223.327 158.135 227.736 158.135H329.526C333.936 158.135 337.514 161.711 337.514 166.117V175.377C337.514 179.783 333.936 183.359 329.526 183.359Z" fill="#1F2026"/>
<path d="M329.398 273.371H227.609C223.199 273.371 219.62 269.795 219.62 265.388V195.669C219.62 191.262 223.199 187.686 227.609 187.686H329.398C333.808 187.686 337.387 191.262 337.387 195.669V265.388C337.387 269.795 333.808 273.371 329.398 273.371Z" fill="#1F2026"/>
<path d="M460.985 102.416C468.044 102.416 473.766 96.698 473.766 89.6442C473.766 82.5903 468.044 76.8721 460.985 76.8721C453.926 76.8721 448.203 82.5903 448.203 89.6442C448.203 96.698 453.926 102.416 460.985 102.416Z" fill="#D4D4D4"/>
<path d="M454.993 140.685C458.302 140.685 460.985 138.004 460.985 134.698C460.985 131.391 458.302 128.711 454.993 128.711C451.684 128.711 449.002 131.391 449.002 134.698C449.002 138.004 451.684 140.685 454.993 140.685Z" fill="#D4D4D4"/>
<path d="M439.416 162.78H398.099C394.792 162.78 392.108 160.098 392.108 156.793C392.108 153.489 394.792 150.806 398.099 150.806H439.416C442.723 150.806 445.407 153.489 445.407 156.793C445.407 160.098 442.723 162.78 439.416 162.78Z" fill="#D4D4D4"/>
<path d="M454.993 162.78C458.302 162.78 460.985 160.1 460.985 156.793C460.985 153.487 458.302 150.806 454.993 150.806C451.684 150.806 449.002 153.487 449.002 156.793C449.002 160.1 451.684 162.78 454.993 162.78Z" fill="#D4D4D4"/>
<path d="M439.416 184.86H398.099C394.792 184.86 392.108 182.178 392.108 178.873C392.108 175.568 394.792 172.886 398.099 172.886H439.416C442.723 172.886 445.407 175.568 445.407 178.873C445.407 182.178 442.723 184.86 439.416 184.86Z" fill="#D4D4D4"/>
<path d="M454.993 184.86C458.302 184.86 460.985 182.18 460.985 178.873C460.985 175.567 458.302 172.886 454.993 172.886C451.684 172.886 449.002 175.567 449.002 178.873C449.002 182.18 451.684 184.86 454.993 184.86Z" fill="#D4D4D4"/>
<path d="M439.416 206.94H398.099C394.792 206.94 392.108 204.258 392.108 200.953C392.108 197.648 394.792 194.966 398.099 194.966H439.416C442.723 194.966 445.407 197.648 445.407 200.953C445.407 204.274 442.723 206.94 439.416 206.94Z" fill="#D4D4D4"/>
<path d="M454.993 206.94C458.302 206.94 460.985 204.259 460.985 200.953C460.985 197.647 458.302 194.966 454.993 194.966C451.684 194.966 449.002 197.647 449.002 200.953C449.002 204.259 451.684 206.94 454.993 206.94Z" fill="#D4D4D4"/>
<path d="M439.416 229.036H398.099C394.792 229.036 392.108 226.353 392.108 223.049C392.108 219.744 394.792 217.062 398.099 217.062H439.416C442.723 217.062 445.407 219.744 445.407 223.049C445.407 226.353 442.723 229.036 439.416 229.036Z" fill="#D4D4D4"/>
<path d="M454.993 229.036C458.302 229.036 460.985 226.355 460.985 223.049C460.985 219.742 458.302 217.062 454.993 217.062C451.684 217.062 449.002 219.742 449.002 223.049C449.002 226.355 451.684 229.036 454.993 229.036Z" fill="#D4D4D4"/>
<path d="M322.991 176.175C325.991 176.175 328.423 173.745 328.423 170.747C328.423 167.749 325.991 165.319 322.991 165.319C319.991 165.319 317.559 167.749 317.559 170.747C317.559 173.745 319.991 176.175 322.991 176.175Z" fill="#E6E6E6"/>
<path d="M322.991 146.752C325.991 146.752 328.423 144.321 328.423 141.323C328.423 138.326 325.991 135.895 322.991 135.895C319.991 135.895 317.559 138.326 317.559 141.323C317.559 144.321 319.991 146.752 322.991 146.752Z" fill="#E6E6E6"/>
<path d="M283.928 238.391C282.601 237.928 281.211 237.673 279.805 237.673H268.222C264.036 237.912 263.477 239.014 261.64 240.61L259.355 242.606H259.339C256.495 243.404 255.856 243.484 255.057 244.873L254.785 245.352C254.546 245.767 254.418 246.23 254.418 246.693V250.668C254.418 251.291 254.578 251.898 254.897 252.457L255.456 253.446C255.888 254.213 256.799 254.692 257.789 254.692H258.604C259.371 255.985 260.777 256.863 262.406 256.863C264.036 256.863 265.426 255.985 266.209 254.692H290.574C291.341 255.985 292.747 256.863 294.376 256.863C296.006 256.863 297.396 255.985 298.179 254.692H299.936C300.288 254.692 300.639 254.628 300.959 254.5L301.231 254.388C301.918 254.117 302.365 253.526 302.365 252.888V248.21C302.365 246.438 301.007 244.889 299.01 244.362L292.747 242.734H292.731C292.172 242.59 291.628 242.383 291.117 242.159H291.101C290.59 241.888 287.315 240.147 285.685 239.349L283.928 238.391ZM272.025 242.159H261.751C262.295 241.425 262.854 240.77 263.509 240.275C264.132 239.78 264.467 239.461 265.889 238.95C267.791 238.248 269.628 238.391 271.545 238.391H272.009H274.453L273.67 242.159H272.025ZM289.136 242.159H275.252V238.391H275.875C277.169 238.391 281.499 238.359 282.474 238.663L289.136 242.159C289.152 242.159 289.152 242.159 289.136 242.159Z" fill="#E6E6E6"/>
<path d="M284.423 207.658C283.097 207.195 281.707 206.94 280.301 206.94H268.717C264.531 207.179 263.972 208.281 262.135 209.878L259.85 211.873H259.834C256.99 212.671 256.351 212.751 255.552 214.14L255.281 214.619C255.041 215.034 254.913 215.497 254.913 215.96V219.936C254.913 220.558 255.073 221.165 255.393 221.724L255.952 222.713C256.383 223.48 257.294 223.959 258.284 223.959H259.099C259.866 225.252 261.272 226.13 262.902 226.13C264.531 226.13 265.921 225.252 266.704 223.959H291.069C291.836 225.252 293.242 226.13 294.872 226.13C296.501 226.13 297.892 225.252 298.674 223.959H300.432C300.783 223.959 301.135 223.895 301.454 223.767L301.726 223.655C302.413 223.384 302.86 222.793 302.86 222.155V217.477C302.86 215.705 301.502 214.156 299.505 213.629L293.242 212.001H293.226C292.667 211.857 292.124 211.65 291.613 211.426H291.597C291.085 211.155 287.81 209.415 286.18 208.616L284.423 207.658ZM272.52 211.426H262.247C262.79 210.692 263.349 210.037 264.004 209.542C264.627 209.047 264.963 208.728 266.385 208.217C268.286 207.515 270.123 207.658 272.057 207.658H272.52H274.964L274.182 211.426H272.52ZM289.631 211.426H275.747V207.658H276.37C277.665 207.658 281.994 207.626 282.969 207.93L289.631 211.426C289.647 211.426 289.647 211.426 289.631 211.426Z" fill="#E6E6E6"/>
<path d="M495.895 0H60.1055C26.9053 0 0 26.8853 0 60.0608V329.871C0 363.047 26.9053 389.932 60.1055 389.932H121.313C132.306 389.932 141.205 398.841 141.205 409.809V453.92C141.205 458.566 137.434 462.318 132.801 462.318H131.81C120.579 462.318 111.456 471.418 111.456 482.658V499.517C111.456 504.753 115.706 508.984 120.93 508.984H141.205H264.452H283.736C288.976 508.984 293.21 504.737 293.21 499.517V482.658C293.21 471.434 284.103 462.318 272.855 462.318C268.206 462.318 264.452 458.55 264.452 453.92V409.825C264.452 398.841 273.367 389.948 284.343 389.948H495.863C529.063 389.948 555.968 363.063 555.968 329.887V60.0768C556 26.8853 529.095 0 495.895 0ZM506.088 307.265C506.088 322.4 493.802 334.677 478.655 334.677H84.5663C69.4201 334.677 57.1338 322.4 57.1338 307.265V82.6834C57.1338 67.5484 69.4201 55.2712 84.5663 55.2712H478.671C493.818 55.2712 506.104 67.5484 506.104 82.6834V307.265H506.088Z" fill="#1F2026"/>
</svg>
