<svg width="268" height="312" viewBox="0 0 268 312" fill="none" xmlns="http://www.w3.org/2000/svg">
<path d="M221.809 269.904H105.772C97.1489 269.904 90.1516 262.912 90.1516 254.295V39.7704C90.1516 31.1537 97.1489 24.1616 105.772 24.1616H221.825C230.448 24.1616 237.445 31.1537 237.445 39.7704V254.279C237.445 262.912 230.448 269.904 221.809 269.904Z" fill="#E6E6E6"/>
<mask id="mask0" mask-type="alpha" maskUnits="userSpaceOnUse" x="90" y="24" width="148" height="246">
<path d="M221.809 269.904H105.772C97.1491 269.904 90.1519 262.912 90.1519 254.295V39.7704C90.1519 31.1537 97.1491 24.1616 105.772 24.1616H221.825C230.448 24.1616 237.445 31.1537 237.445 39.7704V254.279C237.445 262.912 230.448 269.904 221.809 269.904Z" fill="#E6E6E6"/>
</mask>
<g mask="url(#mask0)">
<path d="M91.9209 144.763L91.6977 144.636C90.7414 144.078 90.4066 142.852 90.9645 141.896L165.113 13.57C165.671 12.6144 166.898 12.2799 167.855 12.8374L168.078 12.9648C169.034 13.5222 169.369 14.7486 168.811 15.7043L94.6624 144.031C94.1045 144.986 92.8772 145.321 91.9209 144.763Z" fill="#C7C7C7"/>
<path d="M117.615 49.3586L117.392 49.2312C116.435 48.6738 116.101 47.4474 116.659 46.4917L138.336 8.96699C138.894 8.01135 140.121 7.67688 141.077 8.23433L141.3 8.36175C142.257 8.91921 142.592 10.1456 142.034 11.1012L120.356 48.626C119.799 49.5975 118.571 49.9161 117.615 49.3586Z" fill="#C7C7C7"/>
<path d="M119.336 146.276L119.113 146.149C118.157 145.592 117.822 144.365 118.38 143.41L189.516 20.2915C190.074 19.3358 191.301 19.0013 192.258 19.5588L192.481 19.6862C193.437 20.2437 193.772 21.4701 193.214 22.4257L122.078 145.544C121.52 146.499 120.292 146.818 119.336 146.276Z" fill="#C7C7C7"/>
<path d="M156.969 147.455L156.746 147.328C155.789 146.77 155.454 145.544 156.012 144.588L227.149 21.4702C227.706 20.5145 228.934 20.1801 229.89 20.7375L230.113 20.8649C231.07 21.4224 231.404 22.6488 230.846 23.6044L159.71 146.723C159.168 147.694 157.941 148.013 156.969 147.455Z" fill="#C7C7C7"/>
<path d="M88.7489 94.1784L88.8286 93.9395C89.1952 92.8883 90.3428 92.3468 91.3948 92.729L243.422 146.977C244.458 147.344 245.016 148.491 244.633 149.542L244.554 149.781C244.187 150.832 243.039 151.373 241.987 150.991L89.9603 96.7427C88.9083 96.3764 88.3664 95.2296 88.7489 94.1784Z" fill="#C7C7C7"/>
<path d="M82.5647 145.671V145.416C82.5647 144.301 83.4573 143.409 84.573 143.409H232.854C233.97 143.409 234.863 144.301 234.863 145.416V145.671C234.863 146.786 233.97 147.678 232.854 147.678H84.573C83.4732 147.678 82.5647 146.786 82.5647 145.671Z" fill="#C7C7C7"/>
<path d="M98.5994 208.584L98.4878 208.345C98.0097 207.342 98.44 206.147 99.4442 205.669L239.31 139.3C240.314 138.822 241.509 139.252 241.988 140.256L242.099 140.495C242.577 141.498 242.147 142.693 241.143 143.171L101.277 209.54C100.273 210.002 99.0776 209.571 98.5994 208.584Z" fill="#C7C7C7"/>
<path d="M227.435 273.121H227.18C226.064 273.121 225.172 272.229 225.172 271.115V145.416C225.172 144.301 226.064 143.409 227.18 143.409H227.435C228.551 143.409 229.444 144.301 229.444 145.416V271.115C229.444 272.229 228.535 273.121 227.435 273.121Z" fill="#C7C7C7"/>
<path d="M229.986 269.124L229.794 269.283C228.934 269.984 227.674 269.857 226.973 268.996L127.896 147.232C127.194 146.372 127.322 145.114 128.183 144.413L128.374 144.254C129.235 143.553 130.494 143.68 131.195 144.54L230.273 266.289C230.974 267.149 230.846 268.423 229.986 269.124Z" fill="#C7C7C7"/>
<path d="M248.634 258.198L248.443 258.357C247.582 259.058 246.323 258.93 245.622 258.07L155.55 147.375C154.849 146.515 154.976 145.257 155.837 144.556L156.028 144.397C156.889 143.696 158.148 143.824 158.849 144.684L248.921 255.379C249.623 256.239 249.479 257.513 248.634 258.198Z" fill="#C7C7C7"/>
<path d="M267.267 247.287L267.076 247.446C266.215 248.147 264.956 248.02 264.255 247.16L182.981 147.312C182.28 146.451 182.407 145.193 183.268 144.492L183.459 144.333C184.32 143.632 185.579 143.76 186.281 144.62L267.538 244.468C268.255 245.328 268.128 246.586 267.267 247.287Z" fill="#C7C7C7"/>
</g>
<path d="M108.418 51.6999C95.3956 51.6999 86.2625 48.164 86.0553 48.0844C84.812 47.5747 84.2064 46.1572 84.7005 44.9148C85.2105 43.6725 86.6291 43.0673 87.8723 43.561C89.6575 44.2777 131.976 60.5236 163.376 16.3731C164.157 15.2741 165.671 15.0193 166.771 15.7997C167.871 16.5802 168.126 18.1092 167.345 19.1922C148.409 45.8386 125.186 51.6999 108.418 51.6999Z" fill="#C7C7C7"/>
<path d="M213.966 220.147H113.614C109.215 220.147 105.644 216.58 105.644 212.184V201.353C105.644 196.957 109.215 193.389 113.614 193.389H213.982C218.382 193.389 221.952 196.957 221.952 201.353V212.184C221.936 216.58 218.366 220.147 213.966 220.147Z" fill="#1F2026"/>
<path d="M205.2 212.518C208.598 212.518 211.352 209.944 211.352 206.768C211.352 203.593 208.598 201.019 205.2 201.019C201.802 201.019 199.047 203.593 199.047 206.768C199.047 209.944 201.802 212.518 205.2 212.518Z" fill="#E6E6E6"/>
<path d="M213.966 256.079H113.614C109.215 256.079 105.644 252.511 105.644 248.116V237.285C105.644 232.889 109.215 229.321 113.614 229.321H213.982C218.382 229.321 221.952 232.889 221.952 237.285V248.116C221.936 252.511 218.366 256.079 213.966 256.079Z" fill="#1F2026"/>
<path d="M205.2 248.45C208.598 248.45 211.352 245.876 211.352 242.7C211.352 239.525 208.598 236.95 205.2 236.95C201.802 236.95 199.047 239.525 199.047 242.7C199.047 245.876 201.802 248.45 205.2 248.45Z" fill="#E6E6E6"/>
<path d="M231.34 0H96.2403C81.1141 0 68.8569 12.2481 68.8569 27.3631V284.637C68.8569 299.752 81.1141 312 96.2403 312H231.34C246.466 312 258.723 299.752 258.723 284.637V27.3631C258.723 12.2481 246.466 0 231.34 0ZM163.79 302.268C157.462 302.268 152.314 297.14 152.314 290.801C152.314 284.478 157.446 279.333 163.79 279.333C170.118 279.333 175.266 284.462 175.266 290.801C175.266 297.14 170.118 302.268 163.79 302.268ZM237.445 254.279C237.445 262.896 230.448 269.888 221.824 269.888H105.772C97.1488 269.888 90.1516 262.896 90.1516 254.279V39.7705C90.1516 31.1538 97.1488 24.1617 105.772 24.1617H221.824C230.448 24.1617 237.445 31.1538 237.445 39.7705V254.279Z" fill="#1F2026"/>
<path d="M78.7073 189.79V232.22C78.7073 234.944 76.5077 237.142 73.7821 237.142C71.0565 237.142 68.8569 234.944 68.8569 232.22V82.344H56.281C44.2151 82.344 34.4285 92.1234 34.4285 104.18C34.4285 116.795 29.1048 128.82 19.7485 137.293C7.1726 148.697 0 164.895 0 181.874V237.157C0 268.359 25.3113 293.652 56.536 293.652H56.5838C87.8085 293.652 113.12 268.359 113.12 237.157V189.806C113.12 180.313 105.405 172.604 95.9056 172.604C86.4059 172.588 78.7073 180.297 78.7073 189.79Z" fill="#E8C556"/>
<mask id="mask1" mask-type="alpha" maskUnits="userSpaceOnUse" x="0" y="82" width="114" height="212">
<path d="M78.7073 189.79V232.22C78.7073 234.944 76.5077 237.142 73.7821 237.142C71.0565 237.142 68.8569 234.944 68.8569 232.22V82.344H56.281C44.2151 82.344 34.4285 92.1234 34.4285 104.18C34.4285 116.795 29.1048 128.82 19.7485 137.293C7.1726 148.697 0 164.895 0 181.874V237.157C0 268.359 25.3113 293.652 56.536 293.652H56.5838C87.8085 293.652 113.12 268.359 113.12 237.157V189.806C113.12 180.313 105.405 172.604 95.9056 172.604C86.4059 172.588 78.7073 180.297 78.7073 189.79Z" fill="#E8C556"/>
</mask>
<g mask="url(#mask1)">
<path d="M73.7822 237.157H72.5868C62.2742 237.157 53.9221 228.812 53.9221 218.507V82.344H73.7663V237.157H73.7822Z" fill="#DAB11B"/>
</g>
<path d="M201.885 96.1533C201.757 96.1533 201.63 96.1533 201.502 96.1533C201.375 96.1533 201.247 96.1533 201.12 96.1533C193.819 96.3922 188.958 103.798 191.46 110.599L198.888 130.827C199.781 133.264 203.223 133.264 204.116 130.827L211.544 110.599C214.046 103.798 209.201 96.4082 201.885 96.1533ZM201.502 109.851C199.446 109.851 197.772 108.178 197.772 106.124C197.772 104.069 199.446 102.397 201.502 102.397C203.558 102.397 205.232 104.069 205.232 106.124C205.232 108.178 203.558 109.851 201.502 109.851Z" fill="#E8C556"/>
</svg>
