<?xml version="1.0" encoding="utf-8"?>
<!-- Generator: Adobe Illustrator 23.1.0, SVG Export Plug-In . SVG Version: 6.00 Build 0)  -->
<svg version="1.1" id="Слой_1" xmlns="http://www.w3.org/2000/svg" xmlns:xlink="http://www.w3.org/1999/xlink" x="0px" y="0px"
	 viewBox="0 0 710 1040" style="enable-background:new 0 0 710 1040;" xml:space="preserve">
<style type="text/css">
	.st0{fill:#E6E6E6;}
	.st1{fill:#C7C7C7;}
	.st2{fill:#1F2026;}
	.st3{fill:#D4D4D4;}
	.st4{fill:#4D5060;}
	.st5{fill:#E8C556;}
	.st6{fill:#FFFFFF;}
	.st7{fill:none;stroke:#1F2026;stroke-width:14;stroke-miterlimit:10;}
</style>
<path class="st0" d="M576.5,620.9H171.5c-15.6,0-28.2-12.6-28.2-28.2v-231c0-15.6,12.6-28.2,28.2-28.2h405
	c15.6,0,28.2,12.6,28.2,28.2v231C604.6,608.2,592,620.9,576.5,620.9z"/>
<path class="st1" d="M137,545.1c-1.4-0.8-1.8-2.5-1.1-3.9l99.6-172.5c0.8-1.4,2.5-1.8,3.9-1.1c1.4,0.8,1.8,2.5,1.1,3.9L140.9,544
	C140.1,545.4,138.4,545.8,137,545.1z"/>
<path class="st1" d="M171.6,416.6c-1.4-0.8-1.8-2.5-1.1-3.9l29-50.2c0.8-1.4,2.5-1.8,3.9-1.1c1.4,0.8,1.8,2.5,1.1,3.9l-29,50.2
	C174.7,416.9,173,417.4,171.6,416.6z"/>
<path class="st1" d="M173.9,547.1c-1.4-0.8-1.8-2.5-1.1-3.9l95.5-165.5c0.8-1.4,2.5-1.8,3.9-1.1c1.4,0.8,1.8,2.5,1.1,3.9L177.8,546
	C177,547.4,175.3,547.9,173.9,547.1z"/>
<path class="st1" d="M224.5,548.7c-1.4-0.8-1.8-2.5-1.1-3.9L319,379.3c0.8-1.4,2.5-1.8,3.9-1.1c1.4,0.8,1.8,2.5,1,3.9l-95.5,165.5
	C227.7,549,225.9,549.5,224.5,548.7z"/>
<path class="st1" d="M132.9,476.9c0.5-1.5,2.2-2.3,3.7-1.7l187.5,67c1.5,0.5,2.3,2.2,1.7,3.7c-0.5,1.5-2.2,2.3-3.7,1.7l-187.5-67
	C133.2,480,132.4,478.4,132.9,476.9z"/>
<path class="st1" d="M124.6,546.2c0-1.6,1.3-2.9,2.9-2.9h199.2c1.6,0,2.9,1.3,2.9,2.9c0,1.6-1.3,2.9-2.9,2.9H127.5
	C125.9,549.1,124.6,547.8,124.6,546.2z"/>
<path class="st1" d="M146.1,630.9c-0.7-1.4-0.1-3.2,1.4-3.8l179.9-85.5c1.4-0.7,3.2-0.1,3.8,1.4c0.7,1.4,0.1,3.2-1.4,3.8
	l-179.9,85.5C148.5,633,146.8,632.4,146.1,630.9z"/>
<path class="st1" d="M319.3,718c-1.6,0-2.9-1.3-2.9-2.9V546.2c0-1.6,1.3-2.9,2.9-2.9c1.6,0,2.9,1.3,2.9,2.9v168.9
	C322.2,716.7,320.9,718,319.3,718z"/>
<path class="st1" d="M322.8,712.7c-1.2,1-3,0.8-4-0.4L185.7,548.6c-1-1.2-0.8-3,0.4-4c1.2-1,3-0.8,4,0.4l133.1,163.7
	C324.2,709.9,324,711.7,322.8,712.7z"/>
<path class="st1" d="M347.9,698c-1.2,1-3,0.8-4-0.4l-121-148.8c-1-1.2-0.8-3,0.4-4c1.2-1,3-0.8,4,0.4l121,148.8
	C349.3,695.2,349.1,697,347.9,698z"/>
<path class="st1" d="M320.6,619.6c-1.2,1-3,0.8-4-0.4L207.4,485c-1-1.2-0.8-3,0.4-4c1.2-1,3-0.8,4,0.4L321,615.6
	C322,616.8,321.8,618.6,320.6,619.6z"/>
<path class="st1" d="M159.4,419.8c-17.5,0-29.8-4.8-30.1-4.9c-1.7-0.7-2.5-2.6-1.8-4.3c0.7-1.7,2.6-2.5,4.3-1.8
	c2.4,1,59.3,22.8,101.6-36.6c1.1-1.5,3.1-1.8,4.6-0.8c1.5,1.1,1.8,3.1,0.8,4.6C213.2,411.9,181.9,419.8,159.4,419.8z"/>
<path class="st2" d="M277.3,381.7h-95.1c-7.2,0-13-5.8-13-13c0-7.2,5.8-13,13-13h95.1c7.2,0,13,5.8,13,13
	C290.2,375.9,284.4,381.7,277.3,381.7z"/>
<path class="st2" d="M418.4,381.7h-95.1c-7.2,0-13-5.8-13-13c0-7.2,5.8-13,13-13h95.1c7.2,0,13,5.8,13,13
	C431.4,375.9,425.6,381.7,418.4,381.7z"/>
<path class="st2" d="M423.2,435H318.6c-4.5,0-8.2-3.7-8.2-8.2v-9.5c0-4.5,3.7-8.2,8.2-8.2h104.6c4.5,0,8.2,3.7,8.2,8.2v9.5
	C431.4,431.3,427.7,435,423.2,435z"/>
<path class="st3" d="M536.1,421.4h-42.5c-3.4,0-6.2-2.8-6.2-6.2c0-3.4,2.8-6.2,6.2-6.2h42.5c3.4,0,6.2,2.8,6.2,6.2
	C542.3,418.6,539.5,421.4,536.1,421.4z"/>
<path class="st4" d="M341.6,597.6h-23c-4.5,0-8.2-3.7-8.2-8.2v-9.5c0-4.5,3.7-8.2,8.2-8.2h23c4.5,0,8.2,3.7,8.2,8.2v9.5
	C349.8,593.9,346.1,597.6,341.6,597.6z"/>
<path class="st5" d="M423.7,597.6h-59.1c-4.5,0-8.2-3.7-8.2-8.2v-9.5c0-4.5,3.7-8.2,8.2-8.2h59.1c4.5,0,8.2,3.7,8.2,8.2v9.5
	C431.9,593.9,428.2,597.6,423.7,597.6z"/>
<path class="st2" d="M423.2,465.2H318.6c-4.5,0-8.2-3.7-8.2-8.2v-9.5c0-4.5,3.7-8.2,8.2-8.2h104.6c4.5,0,8.2,3.7,8.2,8.2v9.5
	C431.4,461.6,427.7,465.2,423.2,465.2z"/>
<path class="st2" d="M423.1,557.8H318.5c-4.5,0-8.2-3.7-8.2-8.2v-71.7c0-4.5,3.7-8.2,8.2-8.2h104.6c4.5,0,8.2,3.7,8.2,8.2v71.7
	C431.3,554.2,427.6,557.8,423.1,557.8z"/>
<path class="st3" d="M558.3,382c7.3,0,13.1-5.9,13.1-13.1c0-7.3-5.9-13.1-13.1-13.1c-7.3,0-13.1,5.9-13.1,13.1
	C545.2,376.1,551,382,558.3,382z"/>
<path class="st3" d="M552.1,421.4c3.4,0,6.2-2.8,6.2-6.2s-2.8-6.2-6.2-6.2s-6.2,2.8-6.2,6.2S548.7,421.4,552.1,421.4z"/>
<path class="st3" d="M536.1,444.1h-42.5c-3.4,0-6.2-2.8-6.2-6.2c0-3.4,2.8-6.2,6.2-6.2h42.5c3.4,0,6.2,2.8,6.2,6.2
	C542.3,441.3,539.5,444.1,536.1,444.1z"/>
<path class="st3" d="M552.1,444.1c3.4,0,6.2-2.8,6.2-6.2s-2.8-6.2-6.2-6.2s-6.2,2.8-6.2,6.2S548.7,444.1,552.1,444.1z"/>
<path class="st3" d="M536.1,466.8h-42.5c-3.4,0-6.2-2.8-6.2-6.2c0-3.4,2.8-6.2,6.2-6.2h42.5c3.4,0,6.2,2.8,6.2,6.2
	C542.3,464,539.5,466.8,536.1,466.8z"/>
<path class="st3" d="M552.1,466.8c3.4,0,6.2-2.8,6.2-6.2s-2.8-6.2-6.2-6.2s-6.2,2.8-6.2,6.2S548.7,466.8,552.1,466.8z"/>
<path class="st3" d="M536.1,489.5h-42.5c-3.4,0-6.2-2.8-6.2-6.2c0-3.4,2.8-6.2,6.2-6.2h42.5c3.4,0,6.2,2.8,6.2,6.2
	C542.3,486.7,539.5,489.5,536.1,489.5z"/>
<path class="st3" d="M552.1,489.5c3.4,0,6.2-2.8,6.2-6.2c0-3.4-2.8-6.2-6.2-6.2s-6.2,2.8-6.2,6.2C546,486.7,548.7,489.5,552.1,489.5
	z"/>
<path class="st3" d="M536.1,512.2h-42.5c-3.4,0-6.2-2.8-6.2-6.2c0-3.4,2.8-6.2,6.2-6.2h42.5c3.4,0,6.2,2.8,6.2,6.2
	C542.3,509.5,539.5,512.2,536.1,512.2z"/>
<path class="st3" d="M552.1,512.2c3.4,0,6.2-2.8,6.2-6.2s-2.8-6.2-6.2-6.2s-6.2,2.8-6.2,6.2S548.7,512.2,552.1,512.2z"/>
<path class="st0" d="M416.5,457.9c3.1,0,5.6-2.5,5.6-5.6c0-3.1-2.5-5.6-5.6-5.6c-3.1,0-5.6,2.5-5.6,5.6
	C410.9,455.4,413.4,457.9,416.5,457.9z"/>
<path class="st0" d="M416.5,427.6c3.1,0,5.6-2.5,5.6-5.6c0-3.1-2.5-5.6-5.6-5.6c-3.1,0-5.6,2.5-5.6,5.6
	C410.9,425.1,413.4,427.6,416.5,427.6z"/>
<path class="st0" d="M376.4,521.9c-1.4-0.5-2.8-0.7-4.2-0.7h-11.9c-4.3,0.2-4.9,1.4-6.8,3l-2.3,2.1h0c-2.9,0.8-3.6,0.9-4.4,2.3
	l-0.3,0.5c-0.2,0.4-0.4,0.9-0.4,1.4v4.1c0,0.6,0.2,1.3,0.5,1.8l0.6,1c0.4,0.8,1.4,1.3,2.4,1.3h0.8c0.8,1.3,2.2,2.2,3.9,2.2
	c1.7,0,3.1-0.9,3.9-2.2h25c0.8,1.3,2.2,2.2,3.9,2.2c1.7,0,3.1-0.9,3.9-2.2h1.8c0.4,0,0.7-0.1,1.1-0.2l0.3-0.1
	c0.7-0.3,1.2-0.9,1.2-1.5V532c0-1.8-1.4-3.4-3.4-4l-6.4-1.7h0c-0.6-0.1-1.1-0.4-1.7-0.6h0c-0.5-0.3-3.9-2.1-5.6-2.9L376.4,521.9z
	 M364.1,525.7h-10.6c0.6-0.8,1.1-1.4,1.8-1.9c0.6-0.5,1-0.8,2.4-1.4c2-0.7,3.8-0.6,5.8-0.6h0.5h2.5l-0.8,3.9H364.1z M381.7,525.7
	h-14.3v-3.9h0.6c1.3,0,5.8,0,6.8,0.3L381.7,525.7C381.7,525.7,381.7,525.7,381.7,525.7z"/>
<path class="st0" d="M376.9,490.2c-1.4-0.5-2.8-0.7-4.2-0.7h-11.9c-4.3,0.2-4.9,1.4-6.8,3l-2.3,2.1h0c-2.9,0.8-3.6,0.9-4.4,2.3
	l-0.3,0.5c-0.2,0.4-0.4,0.9-0.4,1.4v4.1c0,0.6,0.2,1.3,0.5,1.8l0.6,1c0.4,0.8,1.4,1.3,2.4,1.3h0.8c0.8,1.3,2.2,2.2,3.9,2.2
	c1.7,0,3.1-0.9,3.9-2.2h25c0.8,1.3,2.2,2.2,3.9,2.2c1.7,0,3.1-0.9,3.9-2.2h1.8c0.4,0,0.7-0.1,1.1-0.2l0.3-0.1
	c0.7-0.3,1.2-0.9,1.2-1.5v-4.8c0-1.8-1.4-3.4-3.4-4l-6.4-1.7h0c-0.6-0.1-1.1-0.4-1.7-0.6h0c-0.5-0.3-3.9-2.1-5.6-2.9L376.9,490.2z
	 M364.6,494.1h-10.6c0.6-0.8,1.1-1.4,1.8-1.9c0.6-0.5,1-0.8,2.4-1.4c2-0.7,3.8-0.6,5.8-0.6h0.5h2.5l-0.8,3.9H364.6z M382.2,494.1
	H368v-3.9h0.6c1.3,0,5.8,0,6.8,0.3L382.2,494.1C382.2,494.1,382.2,494.1,382.2,494.1z"/>
<path class="st2" d="M594.2,276.7H146.4c-34.1,0-61.8,27.7-61.8,61.8V616c0,34.1,27.6,61.8,61.8,61.8h62.9
	c11.3,0,20.4,9.2,20.4,20.4v45.4c0,4.8-3.9,8.6-8.6,8.6h-1c-11.5,0-20.9,9.4-20.9,20.9v17.3c0,5.4,4.4,9.7,9.7,9.7h20.8h126.6h19.8
	c5.4,0,9.7-4.4,9.7-9.7v-17.3c0-11.5-9.4-20.9-20.9-20.9c-4.8,0-8.6-3.9-8.6-8.6v-45.4c0-11.3,9.2-20.4,20.4-20.4h217.3
	c34.1,0,61.8-27.7,61.8-61.8V338.4C655.9,304.3,628.3,276.7,594.2,276.7z M604.6,592.7c0,15.6-12.6,28.2-28.2,28.2H171.5
	c-15.6,0-28.2-12.6-28.2-28.2v-231c0-15.6,12.6-28.2,28.2-28.2h405c15.6,0,28.2,12.6,28.2,28.2L604.6,592.7L604.6,592.7z"/>
<path class="st6" d="M518.1,780.9c-3.2-0.5-5.6-3.2-5.9-6.5c-3-31-29.2-55.2-60.9-55.2c-23.8,0-44.5,13.6-54.6,33.5
	c-1.5,3-4.9,4.5-8.2,3.7c-4.7-1.2-9.8-1.6-15-1.2c-22.7,1.9-40.9,20.4-42.3,43.1c-1.7,27,19.6,49.4,46.3,49.4h122.9l12.1-0.3
	c18.5,0,33.5-15,33.5-33.5C546,797.3,533.9,783.5,518.1,780.9z"/>
<path class="st7" d="M518.1,780.9c-3.2-0.5-5.6-3.2-5.9-6.5c-3-31-29.2-55.2-60.9-55.2c-23.8,0-44.5,13.6-54.6,33.5
	c-1.5,3-4.9,4.5-8.2,3.7c-4.7-1.2-9.8-1.6-15-1.2c-22.7,1.9-40.9,20.4-42.3,43.1c-1.7,27,19.6,49.4,46.3,49.4h122.9l12.1-0.3
	c18.5,0,33.5-15,33.5-33.5C546,797.3,533.9,783.5,518.1,780.9z"/>
</svg>
