<svg id="bg" xmlns="http://www.w3.org/2000/svg" xmlns:xlink="http://www.w3.org/1999/xlink" viewBox="0 0 1048.25 2846.56"><defs><style>.cls-1,.cls-11,.cls-15,.cls-16{fill:none;}.cls-2{clip-path:url(#clip-path);}.cls-3{fill:#e6e6e6;}.cls-4{clip-path:url(#clip-path-2);}.cls-5{fill:#c7c7c7;}.cls-6{fill:#1f2026;}.cls-7{fill:#dab11b;}.cls-8{fill:#e8c556;}.cls-9{clip-path:url(#clip-path-3);}.cls-10{fill:#fff;}.cls-11{stroke:#dab11b;stroke-width:18px;}.cls-11,.cls-15,.cls-16{stroke-miterlimit:10;}.cls-12{clip-path:url(#clip-path-4);}.cls-13{fill:#d4d4d4;}.cls-14{fill:#4d5060;}.cls-15,.cls-16{stroke:#1f2026;}.cls-15{stroke-width:14px;}.cls-16{stroke-width:11px;}</style><clipPath id="clip-path" transform="translate(105.08 -116.5)"><rect class="cls-1" width="800" height="3000"/></clipPath><clipPath id="clip-path-2" transform="translate(105.08 -116.5)"><rect class="cls-1" x="163.63" y="828.28" width="92.41" height="154.29" rx="9.8"/></clipPath><clipPath id="clip-path-3" transform="translate(105.08 -116.5)"><path class="cls-1" d="M156.45,932.27v26.65a3.09,3.09,0,0,1-3.09,3.09h0a3.1,3.1,0,0,1-3.09-3.09V864.81h-7.89a13.71,13.71,0,0,0-13.71,13.71h0a28.08,28.08,0,0,1-9.2,20.79h0a37.78,37.78,0,0,0-12.4,28V962h0a35.48,35.48,0,0,0,35.48,35.47h0A35.47,35.47,0,0,0,178.05,962h0V932.27a10.79,10.79,0,0,0-10.8-10.79h0A10.8,10.8,0,0,0,156.45,932.27Z"/></clipPath><clipPath id="clip-path-4" transform="translate(105.08 -116.5)"><rect class="cls-1" x="444.26" y="1270.92" width="281" height="175" rx="17.17"/></clipPath></defs><title>фон</title><g id="all"><g class="cls-2"><rect class="cls-3" x="268.71" y="711.77" width="92.41" height="154.29" rx="9.8"/><g class="cls-4"><rect class="cls-5" x="187.22" y="814.81" width="2.68" height="95.55" rx="1.26" transform="matrix(0.87, 0.5, -0.5, 0.87, 561.64, -95.22)"/><rect class="cls-5" x="186.89" y="816.33" width="2.68" height="29.72" rx="1.26" transform="translate(545.9 -99.26) rotate(30)"/><rect class="cls-5" x="203.48" y="819.28" width="2.68" height="91.78" rx="1.26" transform="translate(565.11 -103) rotate(30)"/><rect class="cls-5" x="227.09" y="820.02" width="2.68" height="91.78" rx="1.26" transform="translate(568.64 -114.71) rotate(30)"/><rect class="cls-5" x="210.32" y="837.72" width="2.68" height="103.8" rx="1.26" transform="translate(1225.73 872.96) rotate(109.65)"/><rect class="cls-5" x="205.31" y="856.72" width="2.68" height="95.55" rx="1.26" transform="translate(1216.23 581.34) rotate(90)"/><rect class="cls-5" x="212.58" y="872.78" width="2.68" height="99.67" rx="1.26" transform="translate(1060.65 217.1) rotate(64.6)"/><rect class="cls-5" x="353.42" y="786.65" width="2.68" height="81.44" rx="1.26"/><rect class="cls-5" x="218.09" y="892.41" width="2.68" height="101.05" rx="1.26" transform="translate(-440.63 233.28) rotate(-39.12)"/><rect class="cls-5" x="232.61" y="893.5" width="2.68" height="92.09" rx="1.26" transform="translate(-435.24 241.68) rotate(-39.12)"/><rect class="cls-5" x="247.06" y="894.44" width="2.68" height="83.33" rx="1.26" transform="translate(-429.82 250.02) rotate(-39.12)"/><path class="cls-5" d="M175.1,845.57a41.94,41.94,0,0,1-14-2.27,1.53,1.53,0,1,1,1.14-2.84h0c1.12.44,27.67,10.64,47.37-17.08a1.53,1.53,0,0,1,2.5,1.78C200.19,841.89,185.62,845.57,175.1,845.57Z" transform="translate(105.08 -116.5)"/></g><rect class="cls-6" x="278.43" y="818.03" width="72.97" height="16.8" rx="5"/><ellipse class="cls-3" cx="340.89" cy="826.43" rx="3.86" ry="3.61"/><rect class="cls-6" x="278.43" y="840.58" width="72.97" height="16.8" rx="5"/><ellipse class="cls-3" cx="340.89" cy="848.98" rx="3.86" ry="3.61"/><path class="cls-6" d="M252.21,813.11H167.45a17.18,17.18,0,0,0-17.18,17.18V991.82A17.19,17.19,0,0,0,167.45,1009h84.76a17.19,17.19,0,0,0,17.18-17.19V830.29A17.18,17.18,0,0,0,252.21,813.11Zm-42.38,189.78a7.2,7.2,0,1,1,7.2-7.2A7.19,7.19,0,0,1,209.83,1002.89ZM256,972.77a9.8,9.8,0,0,1-9.8,9.8H173.43a9.8,9.8,0,0,1-9.8-9.8V838.08a9.8,9.8,0,0,1,9.8-9.8h72.81a9.8,9.8,0,0,1,9.8,9.8Z" transform="translate(105.08 -116.5)"/><path class="cls-7" d="M-4.6,1153.61V1105c44.42-9.32,53.54-27.92,83.14-72.67,23-34.82,32.32-67.47,32.41-67.8L155,976.71c-.43,1.56-10.87,38.87-37.5,79.57C81.48,1111.4,51.69,1141.8-4.6,1153.61Z" transform="translate(105.08 -116.5)"/><path class="cls-8" d="M156.45,932.27v26.65a3.09,3.09,0,0,1-3.09,3.09h0a3.1,3.1,0,0,1-3.09-3.09V864.81h-7.89a13.71,13.71,0,0,0-13.71,13.71h0a28.08,28.08,0,0,1-9.2,20.79h0a37.78,37.78,0,0,0-12.4,28V962h0a35.48,35.48,0,0,0,35.48,35.47h0A35.47,35.47,0,0,0,178.05,962h0V932.27a10.79,10.79,0,0,0-10.8-10.79h0A10.8,10.8,0,0,0,156.45,932.27Z" transform="translate(105.08 -116.5)"/><g class="cls-9"><path class="cls-7" d="M246,748.31h12.45a0,0,0,0,1,0,0V845.5a0,0,0,0,1,0,0h-.75A11.71,11.71,0,0,1,246,833.79V748.31a0,0,0,0,1,0,0Z"/></g><path class="cls-8" d="M233.74,873.49h-.49a6.74,6.74,0,0,0-6.06,9.07l4.66,12.7a1.75,1.75,0,0,0,3.29,0l4.66-12.7A6.74,6.74,0,0,0,233.74,873.49Zm-.25,8.59a2.34,2.34,0,1,1,2.34-2.34A2.33,2.33,0,0,1,233.49,882.08Z" transform="translate(105.08 -116.5)"/><path class="cls-6" d="M.68,239.16s195,254.32,427,113.32S634,205.56,801,173.52l.62,415L801,727.13s-520.13-133.89-800,22Z" transform="translate(105.08 -116.5)"/><path class="cls-8" d="M454.26,119.09l-69.88,40.34a19.28,19.28,0,0,0-7.05,26.34l81.43,141a19.28,19.28,0,0,0,26.34,7.05L555,293.53A19.29,19.29,0,0,0,562,267.19l-81.43-141A19.29,19.29,0,0,0,454.26,119.09Zm90,144.81a12.48,12.48,0,0,1-4.57,17L482.9,313.72a12.47,12.47,0,0,1-17-4.56L393.73,184.22a12.46,12.46,0,0,1,4.57-17h0a3.55,3.55,0,0,1,4.84,1.29l.39.69a7.46,7.46,0,0,0,10.19,2.73l36.67-21.17a7.46,7.46,0,0,0,2.73-10.19l-.4-.68A3.53,3.53,0,0,1,454,135l1.06-.62a12.48,12.48,0,0,1,17,4.57Z" transform="translate(105.08 -116.5)"/><path class="cls-6" d="M511.47,297.26c-158.19-69.87-283.25-64-364.82-48.71C58.21,265.1,1.2,300.84.68,301.18V285.31c2.18-1.43,50.84-35.08,142.17-52.33,53.48-10.1,109.32-12.3,166-6.53,70.7,7.2,146.78,30.08,218.4,61.71Z" transform="translate(105.08 -116.5)"/><path class="cls-6" d="M175.94,140c.15,0,.26-.12.25-.23a.24.24,0,0,0-.29-.17c-.14,0-.26.11-.25.22S175.79,140,175.94,140Z" transform="translate(105.08 -116.5)"/><path class="cls-6" d="M169.17,143.17a2.05,2.05,0,0,0-.63.23c-.15.1-.22.21-.21.32a.21.21,0,0,0,.14.2.71.71,0,0,0,.34,0,.8.8,0,0,0,.33-.1,1.5,1.5,0,0,0,.23-.17.14.14,0,0,0,0-.1l0-.31A.17.17,0,0,0,169.17,143.17Z" transform="translate(105.08 -116.5)"/><path class="cls-6" d="M244.42,168.23l-.5,0a33.72,33.72,0,0,1-17.85-6.46l-15.43-11.52a32.56,32.56,0,0,0-22.65-6l-5.59.55-1-2.9a5.72,5.72,0,0,0-6.13-3.61l-12.48,1.22a5.72,5.72,0,0,0-5.36,4.93l-.24,2.86-6.51.64a32.69,32.69,0,0,0-21.2,10.52l-16,18a14.85,14.85,0,0,1-9.55,4.78c-6.22.65-10.79,5.64-10.21,11.14l1.75,16.57c.91,8.63,9.21,14.88,18.85,14.49a.13.13,0,0,1,0,.06c1,9.14,10.12,15.66,20.46,14.57s17.93-9.38,17-18.51l56.49-6c1,9.14,10.12,15.66,20.46,14.57s17.93-9.38,17-18.51a.51.51,0,0,1,0-.13c9.08-1.92,15.49-9.57,14.6-17.95l-1.09-10.35C258.51,174.19,252.3,168.78,244.42,168.23Zm-68.55-29a.71.71,0,0,1,.84.51c0,.32-.3.62-.73.66s-.81-.18-.84-.51S175.43,139.29,175.87,139.24Zm-4.49,4.88.88-1.38a.1.1,0,0,0,0-.13l-1-1.07c-.08-.08,0-.2.13-.22l.83-.08a.2.2,0,0,1,.17,0l.33.38h0l.19.23c.06.09.13.16.19.24h0l.11-.27c0-.09.08-.18.11-.27l.19-.42a.17.17,0,0,1,.16-.09l.78-.08c.14,0,.23.09.17.18l-.82,1.36a.1.1,0,0,0,0,.13l1.09,1.08c.08.08,0,.21-.13.22l-.83.08a.18.18,0,0,1-.16,0l-.36-.39a2.25,2.25,0,0,1-.21-.24l-.21-.24h0l-.12.27a2.39,2.39,0,0,0-.13.28l-.22.44a.2.2,0,0,1-.15.09l-.79.08C171.42,144.32,171.32,144.22,171.38,144.12Zm-2.24-1.83a.79.79,0,0,0-.47-.07,2.15,2.15,0,0,0-.5.12l-.37.18a.21.21,0,0,1-.24,0l-.29-.33c-.05-.06,0-.14.06-.19a5.83,5.83,0,0,1,.62-.28,3.45,3.45,0,0,1,.87-.19,1.79,1.79,0,0,1,1.19.21,1.25,1.25,0,0,1,.5,1l.14,1.57c0,.07-.06.14-.16.15l-.63.06a.17.17,0,0,1-.18-.09l-.07-.19h0a2.78,2.78,0,0,1-.51.33,1.85,1.85,0,0,1-1.09.14,1.13,1.13,0,0,1-.39-.15,1.11,1.11,0,0,1-.26-.27.76.76,0,0,1-.11-.34.83.83,0,0,1,.45-.79,4.64,4.64,0,0,1,1.47-.48c.11,0,.17-.11.13-.19A.37.37,0,0,0,169.14,142.29Zm-5.18-.08c0-.07.06-.13.15-.15l.3,0a.18.18,0,0,0,.15-.14l0-.57a.16.16,0,0,1,.16-.14l.64-.06a.16.16,0,0,1,.19.12l0,.52a.16.16,0,0,0,.19.12l.59-.06a.16.16,0,0,1,.19.12l0,.42c0,.07-.06.14-.16.15l-.59.06c-.1,0-.17.07-.17.15l.1,1.06a.46.46,0,0,0,.18.35.55.55,0,0,0,.37.07,1.38,1.38,0,0,0,.2,0h0c.09,0,.2,0,.22.08l.15.36c0,.07,0,.14-.12.17l-.2.06a2.27,2.27,0,0,1-.5.08,1.85,1.85,0,0,1-.63,0,1.18,1.18,0,0,1-.44-.19.82.82,0,0,1-.27-.34,1.64,1.64,0,0,1-.12-.46l-.1-1.08a.16.16,0,0,0-.19-.11l-.18,0c-.1,0-.19,0-.19-.12Zm-2.13-1,.63-.52a.12.12,0,0,1,.13,0l.26.14.31.17.15.08c.05,0,0,.11-.05.11h0a0,0,0,0,0,0,0l0,.47c0,.08-.07.15-.17.16l-.81.08c-.1,0-.19,0-.19-.12l0-.47s0,0,0,0h-.06C161.82,141.27,161.78,141.21,161.83,141.17Zm-28,87.35c-4.4.46-8.3-2.32-8.71-6.21s2.82-7.42,7.23-7.89,8.3,2.32,8.71,6.21S138.27,228.05,133.86,228.52ZM171.14,158l1,9.12c.54,5.09-2.55,5.42-6.36,5.82l-37.27,3.71c-1.58.16-2.6-1.09-1.71-2.11l8.16-9.32c5.36-6.11,14-10.26,23.52-11.26l5.27-.34C170.68,153.43,170.85,155.15,171.14,158Zm5.71-12.6-14.16,1.41a.17.17,0,0,1-.19-.11l-.15-1.68h0l-.26-2.68c0-.07.06-.14.16-.15l.81-.08a.16.16,0,0,1,.19.12l.26,2.68h0l.08.84a.16.16,0,0,0,.19.12l11.83-1.2c.1,0,.17-.07.16-.15l-.07-.76h0l-.26-2.74a.16.16,0,0,1,.17-.15l.81-.08a.16.16,0,0,1,.19.11l.26,2.75h0l.15,1.6C177,145.3,177,145.36,176.85,145.37Zm6.44,25.47a3.31,3.31,0,0,1-3.86-2.61l-1.3-12.3a3.46,3.46,0,0,1,3.37-3.5l9.33-1a24.48,24.48,0,0,1,18.36,5.28l9.48,8.1c1,.82.33,2.25-1.06,2.4Zm44,47.83c-4.4.46-8.3-2.32-8.71-6.21s2.82-7.43,7.23-7.89,8.3,2.31,8.71,6.21S231.74,218.2,227.33,218.67Z" transform="translate(105.08 -116.5)"/><path class="cls-10" d="M118.11,590.57l-.89.23h0l-.87.26c-16.5,5.14-22.92,25-12.94,39L133,671.52A6.59,6.59,0,0,0,145,668.24l4.22-50.78C150.61,600.36,134.91,586.55,118.11,590.57ZM125.82,622A8.8,8.8,0,1,1,132,611.2,8.8,8.8,0,0,1,125.82,622Z" transform="translate(105.08 -116.5)"/><path class="cls-10" d="M571.19,579.3l-.91-.11h0l-.91-.07c-17.24-1.08-30.34,15.21-26,31.82l12.87,49.3a6.59,6.59,0,0,0,12.31,1.19l22.08-45.93C598.06,600,588.32,581.54,571.19,579.3Zm-4,32.12a8.8,8.8,0,1,1,9.6-7.91A8.78,8.78,0,0,1,567.17,611.42Z" transform="translate(105.08 -116.5)"/><circle class="cls-10" cx="285.8" cy="533.57" r="12.29"/><circle class="cls-10" cx="333.99" cy="521.28" r="12.29"/><circle class="cls-10" cx="382.18" cy="515.57" r="12.29"/><circle class="cls-10" cx="431.83" cy="511.95" r="12.29"/><circle class="cls-10" cx="483.95" cy="511.95" r="12.29"/><circle class="cls-10" cx="536.08" cy="515.57" r="12.29"/><circle class="cls-10" cx="581.41" cy="521.28" r="12.29"/><circle class="cls-10" cx="626.74" cy="530.49" r="12.29"/><circle class="cls-10" cx="710.52" cy="545.87" r="12.29"/><circle class="cls-10" cx="756.18" cy="530.49" r="12.29"/><circle class="cls-10" cx="797.07" cy="509.87" r="12.29"/><circle class="cls-10" cx="809.36" cy="467.74" r="12.29"/><circle class="cls-10" cx="817.47" cy="426.25" r="12.29"/><circle class="cls-10" cx="827.17" cy="384.76" r="12.29"/><path class="cls-10" d="M640.75,306.07l22.8,42.59a20.21,20.21,0,0,0,20.68,10.47c22.95-3.26,63.42-3,66.69-11.48,4.5-11.72,2.85-51.42,4.41-86.26a20.22,20.22,0,0,0-28.82-19.2l-76.54,36A20.24,20.24,0,0,0,640.75,306.07Z" transform="translate(105.08 -116.5)"/><path class="cls-10" d="M626.3,302.65l32.75,61.28a11,11,0,0,1,.43,9.46l-15.93,37.7a11,11,0,0,1-17.07,4.24l-67.24-54.81a11,11,0,0,1-.3-16.79l50.42-44.16A11,11,0,0,1,626.3,302.65Z" transform="translate(105.08 -116.5)"/><path class="cls-8" d="M685.92,368.73c11.63-1.33,32.17-4,46.51-5.93a13.45,13.45,0,0,1,15.21,14l-3.31,71.11A20.18,20.18,0,0,1,726.8,467l-7.31,1a20.22,20.22,0,0,1-12.43-2.35l-47.58-26.37a16.1,16.1,0,0,1-6.55-21.36l20.44-40.38A16.12,16.12,0,0,1,685.92,368.73Z" transform="translate(105.08 -116.5)"/><path class="cls-6" d="M1,2575s568.23-184,800.62,0v230S402,3123,1,2857Z" transform="translate(105.08 -116.5)"/><path class="cls-6" d="M753.94,2214.89c.37,0,.68-.19.69-.45s-.28-.49-.64-.51-.68.19-.69.45S753.58,2214.87,753.94,2214.89Z" transform="translate(105.08 -116.5)"/><path class="cls-6" d="M736.39,2220.09a5.39,5.39,0,0,0-1.61.33c-.4.19-.61.42-.62.7a.53.53,0,0,0,.28.52,1.77,1.77,0,0,0,.8.2,2,2,0,0,0,.85-.13,3.68,3.68,0,0,0,.62-.32.29.29,0,0,0,.15-.23l0-.74C736.9,2220.22,736.66,2220.06,736.39,2220.09Z" transform="translate(105.08 -116.5)"/><path class="cls-6" d="M911.35,2304l-1.2-.25a84,84,0,0,1-41.33-21.09l-33.75-32.29c-13.65-13.06-32.84-20.87-53.18-21.64l-13.79-.53-1.34-7.17c-1.1-5.85-6.85-10.26-13.75-10.53l-30.8-1.22c-7.1-.28-13.34,3.91-14.7,9.88l-1.53,6.68-16.08-.61c-20.53-.78-40.47,5.67-55.15,17.87l-44.9,37.26a37.2,37.2,0,0,1-24.86,8.14c-15.37-.49-28.18,9.79-28.6,23l-1.27,39.72c-.66,20.67,17.48,38.16,41.11,40.4,0,.05,0,.1,0,.15-.7,21.89,19.43,40.3,45,41.12s46.82-16.27,47.52-38.16l139.59,4.47c-.7,21.89,19.43,40.3,45,41.11s46.82-16.26,47.52-38.15c0-.1,0-.2,0-.3,22.78-1.57,40.93-17.53,41.58-37.61l.79-24.81C943.68,2322.66,930.37,2307.84,911.35,2304ZM754,2213c1.07,0,1.92.7,1.88,1.48s-.93,1.36-2,1.32-1.92-.7-1.88-1.47S753,2213,754,2213Zm-12.56,10,2.59-3a.26.26,0,0,0,0-.33l-2.14-2.86c-.17-.22.05-.48.39-.47l2.06.08a.53.53,0,0,1,.38.18l.68,1h0l.37.62c.13.21.26.42.4.63h.07l.36-.6q.2-.3.36-.6l.6-.93a.48.48,0,0,1,.41-.18l1.93.08c.34,0,.53.28.36.49l-2.45,2.93a.25.25,0,0,0,0,.33l2.3,2.9c.17.22,0,.49-.39.47l-2-.08a.48.48,0,0,1-.37-.17l-.76-1.05-.44-.63c-.14-.22-.28-.43-.43-.64h-.08c-.12.19-.25.39-.39.59s-.28.41-.4.61l-.69,1a.46.46,0,0,1-.4.17l-1.94-.07C741.49,2223.54,741.29,2223.27,741.47,2223.06Zm-4.85-5a1.85,1.85,0,0,0-1.13-.32,4.39,4.39,0,0,0-1.25.12c-.3.08-.62.17-1,.29a.55.55,0,0,1-.58-.15l-.58-.86c-.11-.16,0-.35.19-.43a12,12,0,0,1,1.61-.46,9.18,9.18,0,0,1,2.19-.17,4.58,4.58,0,0,1,2.83.89,2.94,2.94,0,0,1,.88,2.47l-.17,3.76a.4.4,0,0,1-.45.31l-1.55-.06a.44.44,0,0,1-.42-.28l-.1-.48h-.08a7,7,0,0,1-1.34.6,4.35,4.35,0,0,1-1.51.2,4,4,0,0,1-1.2-.22,2.63,2.63,0,0,1-.89-.49,2.1,2.1,0,0,1-.54-.7,1.68,1.68,0,0,1-.17-.86,2,2,0,0,1,1.37-1.7,11.16,11.16,0,0,1,3.74-.67c.27,0,.46-.21.38-.4A1.05,1.05,0,0,0,736.62,2218Zm-12.6-1.89c0-.17.19-.3.42-.3l.73,0a.39.39,0,0,0,.41-.26l.3-1.35a.42.42,0,0,1,.44-.26l1.57.06c.24,0,.43.16.42.33l0,1.26c0,.18.18.33.42.34l1.45,0a.4.4,0,0,1,.43.34l0,1c0,.18-.21.31-.45.3l-1.45,0c-.24,0-.45.12-.45.3l-.12,2.54a1.06,1.06,0,0,0,.31.88,1.39,1.39,0,0,0,.9.3,2.64,2.64,0,0,0,.48,0h0a.44.44,0,0,1,.52.26l.23.91c0,.17-.11.33-.33.36l-.52.07a7,7,0,0,1-1.24,0,5,5,0,0,1-1.52-.26,2.81,2.81,0,0,1-1-.6,2.14,2.14,0,0,1-.54-.89,3.16,3.16,0,0,1-.14-1.13l.11-2.57c0-.18-.18-.33-.42-.34h-.46a.39.39,0,0,1-.42-.34Zm-4.84-3.16,1.7-1a.33.33,0,0,1,.33,0l.58.42.7.5.34.24c.13.09,0,.25-.14.24h-.14c-.06,0-.1,0-.1.07l-.05,1.12c0,.19-.22.33-.48.32l-2-.07c-.25,0-.45-.17-.44-.36l0-1.13s0-.07-.1-.07h-.14C719.13,2213.2,719.05,2213,719.18,2213Zm-97.26,197.12c-10.88-.35-19.46-8.19-19.16-17.52S612.12,2376,623,2376.3s19.47,8.19,19.17,17.52S632.81,2410.43,621.92,2410.08Zm114.35-154.4-.7,21.86c-.39,12.21-8,12-17.45,11.67l-92-3.48c-3.9-.12-6-3.42-3.46-5.53l23-19.33c15.08-12.69,37.55-19.64,61.06-18.89l12.93.94C736.65,2244.83,736.48,2248.93,736.27,2255.68Zm18.11-27.87-35-1.31c-.24,0-.42-.16-.42-.33l.18-4v0l.27-6.42c0-.18.21-.31.45-.3l2,.07c.24,0,.43.16.42.34l-.26,6.43,0,0-.09,2c0,.17.18.32.42.33l29.22,1.07c.24,0,.44-.13.45-.31l.08-1.81h0l.29-6.58a.4.4,0,0,1,.45-.3l2,.08c.24,0,.43.16.42.33l-.29,6.59h0l-.17,3.82C754.82,2227.69,754.62,2227.82,754.38,2227.81Zm7.19,62.26c-4.84-.15-8.66-3.49-8.54-7.44l1-29.47c.13-4.11,4.32-7.32,9.37-7.16l23,.74c16.93.54,32.74,7.34,43,18.48l20.4,22.24c2.08,2.26.06,5.43-3.37,5.32Zm91.34,127.4c-10.88-.35-19.46-8.19-19.17-17.52s9.37-16.6,20.25-16.26,19.46,8.2,19.16,17.52S863.79,2417.82,852.91,2417.47Z" transform="translate(105.08 -116.5)"/><path class="cls-11" d="M-57,2565S170,2399,905.08,2448" transform="translate(105.08 -116.5)"/><circle class="cls-6" cx="856.71" cy="1963.15" r="16.72"/><circle class="cls-6" cx="867.4" cy="2005.22" r="16.72"/><circle class="cls-6" cx="878.09" cy="2047.28" r="16.72"/><circle class="cls-6" cx="898.79" cy="1952.46" r="16.72"/><circle class="cls-6" cx="909.48" cy="1994.52" r="16.72"/><circle class="cls-6" cx="920.17" cy="2036.58" r="16.72"/><circle class="cls-6" cx="940.87" cy="1941.76" r="16.72"/><circle class="cls-6" cx="951.56" cy="1983.83" r="16.72"/><circle class="cls-6" cx="962.25" cy="2025.89" r="16.72"/><path class="cls-6" d="M231.1,1779.4a5.23,5.23,0,0,1-5.23,5.23H125.08a5.23,5.23,0,0,1-5.23-5.23V1582.49a5.23,5.23,0,0,0-5.23-5.23h0a5.23,5.23,0,0,0-5.23,5.23v357.45a5.23,5.23,0,0,1-5.23,5.22h-204a5.23,5.23,0,0,0-5.23,5.23h0a5.23,5.23,0,0,0,5.23,5.23h204a5.23,5.23,0,0,1,5.23,5.23V2040a5.23,5.23,0,0,1-5.23,5.23H65.46a5.23,5.23,0,0,0-5.22,5.23h0a5.23,5.23,0,0,0,5.22,5.23H225.87a5.23,5.23,0,0,1,5.23,5.23v66.46a5.23,5.23,0,0,0,5.23,5.23h0a5.23,5.23,0,0,0,5.23-5.23v-66.46a5.23,5.23,0,0,1,5.23-5.23H430.64a5.23,5.23,0,0,0,5.23-5.23h0a5.23,5.23,0,0,0-5.23-5.23H246.79a5.23,5.23,0,0,1-5.23-5.23v-79.14a5.23,5.23,0,0,1,5.23-5.23h18.53a5.23,5.23,0,0,0,5.23-5.23h0a5.23,5.23,0,0,0-5.23-5.23H246.79a5.23,5.23,0,0,1-5.23-5.22V1783a52.29,52.29,0,0,1,15.32-37l70.6-70.61a5.23,5.23,0,0,0,0-7.39h0a5.23,5.23,0,0,0-7.39,0L247,1741.09a54.18,54.18,0,0,0-15.87,38.31Zm-106,15.68H225.87a5.23,5.23,0,0,1,5.23,5.23v139.63a5.23,5.23,0,0,1-5.23,5.22H125.08a5.23,5.23,0,0,1-5.23-5.22V1800.31A5.23,5.23,0,0,1,125.08,1795.08ZM119.85,2040v-79.14a5.23,5.23,0,0,1,5.23-5.23H225.87a5.23,5.23,0,0,1,5.23,5.23V2040a5.23,5.23,0,0,1-5.23,5.23H125.08A5.23,5.23,0,0,1,119.85,2040Z" transform="translate(105.08 -116.5)"/><circle class="cls-8" cx="201.8" cy="1775.4" r="15.4"/><circle class="cls-8" cx="184.67" cy="1811.52" r="15.4"/><circle class="cls-8" cx="167.54" cy="1847.64" r="15.4"/><circle class="cls-8" cx="237.94" cy="1792.54" r="15.4"/><circle class="cls-8" cx="220.81" cy="1828.66" r="15.4"/><circle class="cls-8" cx="203.68" cy="1864.78" r="15.4"/><circle class="cls-8" cx="274.08" cy="1809.67" r="15.4"/><circle class="cls-8" cx="256.95" cy="1845.8" r="15.4"/><circle class="cls-8" cx="239.82" cy="1881.92" r="15.4"/><rect class="cls-6" x="90.47" y="1712.17" width="241.47" height="153.63" rx="30.31" transform="matrix(0.83, -0.56, 0.56, 0.83, -867.97, 315.05)"/><rect class="cls-6" x="82.6" y="1714.6" width="241.47" height="125.77" rx="33.11" transform="translate(-862.85 308.6) rotate(-34.37)"/><rect class="cls-7" x="146.38" y="1744.03" width="26.22" height="160.65" rx="7.68" transform="translate(-896.96 292.03) rotate(-34.37)"/><rect class="cls-7" x="249.79" y="1673.3" width="26.22" height="160.65" rx="7.68" transform="translate(-838.98 338.07) rotate(-34.37)"/><rect class="cls-8" x="242.33" y="1675.61" width="26.22" height="134.19" rx="7.68" transform="matrix(0.83, -0.56, 0.56, 0.83, -834.12, 331.94)"/><rect class="cls-6" x="142.62" y="1722.67" width="5.74" height="16.45" transform="translate(-846.65 267.82) rotate(-34.37)"/><rect class="cls-6" x="178.02" y="1698.46" width="5.74" height="16.45" transform="matrix(0.83, -0.56, 0.56, 0.83, -826.8, 283.57)"/><rect class="cls-7" x="126.42" y="1702.64" width="58.45" height="10.26" rx="3.08" transform="translate(-831.82 269.51) rotate(-34.37)"/><rect class="cls-8" x="127.09" y="1704.8" width="50.81" height="10.26" rx="3.08" transform="translate(-833.59 268.11) rotate(-34.37)"/><polygon class="cls-8" points="236.73 1690.36 273.18 1697.2 269.9 1692.41 233.46 1685.57 236.73 1690.36"/><path class="cls-8" d="M196.39,1855.08l-10.52-15.38-36.45-6.85,25.32,37a7.68,7.68,0,0,0,10.68,2l9-6.13A7.68,7.68,0,0,0,196.39,1855.08Z" transform="translate(105.08 -116.5)"/><path class="cls-8" d="M119.88,1789.65l36.44,6.83-27-39.49a7.68,7.68,0,0,0-10.68-2l-9,6.13a7.67,7.67,0,0,0-2,10.67l12.22,17.87Z" transform="translate(105.08 -116.5)"/><rect class="cls-3" x="549.34" y="1154.41" width="281" height="175" rx="17.17"/><g class="cls-12"><rect class="cls-5" x="469.86" y="1283.3" width="3.5" height="124.81" rx="1.75" transform="translate(841.12 -172.02) rotate(30)"/><rect class="cls-5" x="469.42" y="1285.28" width="3.5" height="38.83" rx="1.75" transform="translate(820.56 -177.3) rotate(30)"/><rect class="cls-5" x="491.1" y="1289.13" width="3.5" height="119.88" rx="1.75" transform="translate(845.65 -182.19) rotate(30)"/><rect class="cls-5" x="521.94" y="1290.11" width="3.5" height="119.88" rx="1.75" transform="translate(850.27 -197.48) rotate(30)"/><rect class="cls-5" x="494.95" y="1316.8" width="3.5" height="124.81" rx="1.75" transform="translate(2067.7 1258.74) rotate(109.65)"/><rect class="cls-5" x="493.49" y="1338.04" width="3.5" height="124.81" rx="1.75" transform="translate(2000.77 788.7) rotate(90)"/><rect class="cls-5" x="500.55" y="1362.86" width="3.5" height="124.81" rx="1.75" transform="translate(1679.37 243.62) rotate(64.6)"/><rect class="cls-5" x="654.78" y="1282.19" width="3.5" height="106.37" rx="1.75"/><rect class="cls-5" x="510.18" y="1384.65" width="3.5" height="131.99" rx="1.75" transform="translate(-695.38 531.61) rotate(-39.12)"/><rect class="cls-5" x="529.14" y="1386.09" width="3.5" height="120.29" rx="1.75" transform="translate(-688.35 542.58) rotate(-39.12)"/><rect class="cls-5" x="548.03" y="1387.3" width="3.5" height="108.84" rx="1.75" transform="translate(-681.27 553.49) rotate(-39.12)"/><path class="cls-5" d="M454,1323.48a54.45,54.45,0,0,1-18.32-3,2,2,0,0,1,1.49-3.71h0c1.46.59,36.15,13.91,61.88-22.3a2,2,0,0,1,3.26,2.32C486.8,1318.66,467.76,1323.48,454,1323.48Z" transform="translate(105.08 -116.5)"/></g><rect class="cls-6" x="565.11" y="1167.94" width="73.71" height="15.8" rx="7.9"/><rect class="cls-6" x="651.11" y="1167.94" width="73.71" height="15.8" rx="7.9"/><rect class="cls-6" x="651.11" y="1200.41" width="73.71" height="15.8" rx="5"/><rect class="cls-13" x="759" y="1200.41" width="33.36" height="7.5" rx="3.75"/><rect class="cls-14" x="651.11" y="1299.41" width="24" height="15.8" rx="5"/><rect class="cls-8" x="679.11" y="1299.41" width="46" height="15.8" rx="5"/><rect class="cls-6" x="651.11" y="1218.84" width="73.71" height="15.8" rx="5"/><rect class="cls-6" x="651.03" y="1237.35" width="73.71" height="53.67" rx="5"/><circle class="cls-13" cx="802.11" cy="1175.94" r="8"/><circle class="cls-13" cx="798.36" cy="1204.16" r="3.75"/><rect class="cls-13" x="759" y="1214.25" width="33.36" height="7.5" rx="3.75"/><circle class="cls-13" cx="798.36" cy="1218" r="3.75"/><rect class="cls-13" x="759" y="1228.08" width="33.36" height="7.5" rx="3.75"/><circle class="cls-13" cx="798.36" cy="1231.83" r="3.75"/><rect class="cls-13" x="759" y="1241.91" width="33.36" height="7.5" rx="3.75"/><circle class="cls-13" cx="798.36" cy="1245.66" r="3.75"/><rect class="cls-13" x="759" y="1255.75" width="33.36" height="7.5" rx="3.75"/><circle class="cls-13" cx="798.36" cy="1259.5" r="3.75"/><circle class="cls-3" cx="715.73" cy="1226.74" r="3.4"/><circle class="cls-3" cx="715.73" cy="1208.31" r="3.4"/><path class="cls-3" d="M586.2,1385.62a7.82,7.82,0,0,0-2.58-.45h-7.26c-2.62.15-3,.83-4.11,1.84l-1.44,1.25h0c-1.77.5-2.18.55-2.68,1.42l-.17.3a1.69,1.69,0,0,0-.23.84v2.49a2.24,2.24,0,0,0,.3,1.12l.36.62a1.66,1.66,0,0,0,1.46.78h.51a2.76,2.76,0,0,0,4.76,0h15.25a2.76,2.76,0,0,0,4.76,0h1.1a1.73,1.73,0,0,0,.64-.12l.17-.07a1,1,0,0,0,.7-.94v-2.93a2.61,2.61,0,0,0-2.1-2.41l-3.92-1h0a6.22,6.22,0,0,1-1-.37h0c-.33-.16-2.37-1.26-3.39-1.75m-8.54,1.75h-6.42a5.62,5.62,0,0,1,1.1-1.17,4.16,4.16,0,0,1,1.49-.84,9.91,9.91,0,0,1,3.54-.34h1.82l-.48,2.35Zm10.72,0h-8.7v-2.35h.39a28.76,28.76,0,0,1,4.13.17h0l4.18,2.18Z" transform="translate(105.08 -116.5)"/><path class="cls-3" d="M586.51,1366.37a7.82,7.82,0,0,0-2.58-.45h-7.26c-2.62.15-3,.83-4.11,1.84l-1.44,1.25h0c-1.77.5-2.18.55-2.68,1.42l-.17.3a1.69,1.69,0,0,0-.23.84v2.49a2.24,2.24,0,0,0,.3,1.12l.36.62a1.66,1.66,0,0,0,1.46.78h.51a2.76,2.76,0,0,0,4.76,0h15.25a2.76,2.76,0,0,0,4.76,0h1.1a1.73,1.73,0,0,0,.64-.12l.17-.07a1,1,0,0,0,.7-.94v-2.93a2.61,2.61,0,0,0-2.1-2.41l-3.92-1h0a6.22,6.22,0,0,1-1-.37h0c-.33-.16-2.37-1.26-3.39-1.75m-8.54,1.75h-6.42a5.62,5.62,0,0,1,1.1-1.17,4.16,4.16,0,0,1,1.49-.84,9.91,9.91,0,0,1,3.54-.34h1.82l-.48,2.35Zm10.72,0h-8.7v-2.35h.39a28.76,28.76,0,0,1,4.13.17h0l4.18,2.18Z" transform="translate(105.08 -116.5)"/><path class="cls-6" d="M718.87,1236.29H446.12a37.63,37.63,0,0,0-37.63,37.63v169a37.62,37.62,0,0,0,37.63,37.62h38.31A12.45,12.45,0,0,1,496.88,1493v27.63a5.26,5.26,0,0,1-5.26,5.26H491a12.74,12.74,0,0,0-12.74,12.74v10.55a5.93,5.93,0,0,0,5.93,5.93h101.9a5.93,5.93,0,0,0,5.94-5.93v-10.55a12.74,12.74,0,0,0-12.74-12.74,5.26,5.26,0,0,1-5.26-5.26V1493a12.45,12.45,0,0,1,12.45-12.46H718.87a37.62,37.62,0,0,0,37.62-37.62v-169A37.62,37.62,0,0,0,718.87,1236.29Zm6.39,192.46a17.17,17.17,0,0,1-17.17,17.17H461.42a17.16,17.16,0,0,1-17.16-17.17V1288.08a17.16,17.16,0,0,1,17.16-17.16H708.09a17.16,17.16,0,0,1,17.17,17.16Z" transform="translate(105.08 -116.5)"/><path class="cls-10" d="M672.55,1543.34a4.41,4.41,0,0,1-3.61-3.95,37.3,37.3,0,0,0-70.37-13.23,4.36,4.36,0,0,1-5,2.23,28.24,28.24,0,1,0-6.73,55.67h74.85l7.4-.2a20.4,20.4,0,0,0,3.43-40.52Z" transform="translate(105.08 -116.5)"/><path class="cls-15" d="M672.55,1543.34a4.41,4.41,0,0,1-3.61-3.95,37.3,37.3,0,0,0-70.37-13.23,4.36,4.36,0,0,1-5,2.23,28.24,28.24,0,1,0-6.73,55.67h74.85l7.4-.2a20.4,20.4,0,0,0,3.43-40.52Z" transform="translate(105.08 -116.5)"/><path class="cls-10" d="M145.16,1258.06a2.94,2.94,0,0,1-2.42-2.65,25,25,0,0,0-47.13-8.85,2.92,2.92,0,0,1-3.33,1.49,18.91,18.91,0,1,0-4.5,37.28H137.9l5-.13a13.67,13.67,0,0,0,2.3-27.14Z" transform="translate(105.08 -116.5)"/><path class="cls-16" d="M145.16,1258.06a2.94,2.94,0,0,1-2.42-2.65,25,25,0,0,0-47.13-8.85,2.92,2.92,0,0,1-3.33,1.49,18.91,18.91,0,1,0-4.5,37.28H137.9l5-.13a13.67,13.67,0,0,0,2.3-27.14Z" transform="translate(105.08 -116.5)"/><path class="cls-10" d="M869.87,1138a7.54,7.54,0,0,1-6.2-6.79,64.15,64.15,0,0,0-121-22.74,7.5,7.5,0,0,1-8.54,3.83A48.56,48.56,0,1,0,722.53,1208H851.24l12.73-.34a35.1,35.1,0,0,0,5.9-69.69Z" transform="translate(105.08 -116.5)"/><path class="cls-16" d="M869.87,1138a7.54,7.54,0,0,1-6.2-6.79,64.15,64.15,0,0,0-121-22.74,7.5,7.5,0,0,1-8.54,3.83A48.56,48.56,0,1,0,722.53,1208H851.24l12.73-.34a35.1,35.1,0,0,0,5.9-69.69Z" transform="translate(105.08 -116.5)"/><path class="cls-16" d="M643.11,1668.37a2.93,2.93,0,0,1-2.41-2.64,25,25,0,0,0-47.14-8.86,2.93,2.93,0,0,1-3.32,1.5,18.75,18.75,0,0,0-6.11-.48,18.91,18.91,0,0,0,1.6,37.76h50.13l5-.14a13.67,13.67,0,0,0,2.29-27.14Z" transform="translate(105.08 -116.5)"/><path class="cls-10" d="M386.06,1577.52a5.75,5.75,0,0,0,4.7-5.15,48.59,48.59,0,0,1,91.67-17.23,5.68,5.68,0,0,0,6.47,2.91,36.78,36.78,0,1,1,8.76,72.51H400.17l-9.64-.26a26.58,26.58,0,0,1-4.47-52.78Z" transform="translate(105.08 -116.5)"/><path class="cls-15" d="M386.06,1577.52a5.75,5.75,0,0,0,4.7-5.15,48.59,48.59,0,0,1,91.67-17.23,5.68,5.68,0,0,0,6.47,2.91,36.78,36.78,0,1,1,8.76,72.51H400.17l-9.64-.26a26.58,26.58,0,0,1-4.47-52.78Z" transform="translate(105.08 -116.5)"/></g></g></svg>