<?xml version="1.0" encoding="utf-8"?>
<!-- Generator: Adobe Illustrator 23.1.0, SVG Export Plug-In . SVG Version: 6.00 Build 0)  -->
<svg version="1.1" id="Слой_1" xmlns="http://www.w3.org/2000/svg" xmlns:xlink="http://www.w3.org/1999/xlink" x="0px" y="0px"
	 viewBox="0 0 968 3973" style="enable-background:new 0 0 968 3973;" xml:space="preserve">
<style type="text/css">
	.st0{clip-path:url(#SVGID_2_);}
	.st1{fill:#1F2026;}
	.st2{fill:#E8C556;}
	.st3{fill:#FFFFFF;}
	.st4{fill:none;stroke:#DAB11B;stroke-width:21.7913;stroke-miterlimit:10;}
	.st5{fill:none;stroke:#1F2026;stroke-width:13.3169;stroke-miterlimit:10;}
</style>
<title>Ресурс 2</title>
<g>
	<g id="bg">
		<g>
			<g>
				<defs>
					<rect id="SVGID_1_" x="-0.3" y="210.4" width="968.5" height="3631.9"/>
				</defs>
				<clipPath id="SVGID_2_">
					<use xlink:href="#SVGID_1_"  style="overflow:visible;"/>
				</clipPath>
				<g class="st0">
					<path class="st1" d="M0.6,499.9c0,0,236.1,307.9,516.9,137.2s249.8-177.9,452-216.7l0.8,502.4l-0.8,167.9
						c0,0-629.7-162.1-968.5,26.6L0.6,499.9z"/>
					<path class="st2" d="M549.7,354.6l-84.6,48.8c-11.2,6.4-15,20.7-8.5,31.9L555.2,606c6.4,11.2,20.7,15,31.9,8.5l0,0l84.6-48.8
						c11.2-6.4,15-20.7,8.5-31.9l0,0l-98.6-170.7C575.2,351.9,560.8,348.1,549.7,354.6z M658.7,529.9c4.1,7.2,1.7,16.4-5.5,20.6
						l-68.8,39.7c-7.2,4.1-16.4,1.7-20.6-5.5l-87.4-151.2c-4.1-7.2-1.7-16.4,5.5-20.6l0,0c2-1.2,4.7-0.5,5.9,1.6l0,0l0.5,0.8
						c2.5,4.3,8,5.8,12.3,3.3l0,0L545,393c4.3-2.5,5.8-8,3.3-12.3l-0.5-0.8c-1.2-2-0.5-4.7,1.6-5.9l0,0l1.3-0.8
						c7.2-4.1,16.4-1.7,20.6,5.5L658.7,529.9z"/>
					<path class="st1" d="M619,570.3c-191.5-84.6-342.9-77.5-441.7-59C70.3,531.3,1.1,574.6,0.6,575v-19.2
						c2.6-1.7,61.5-42.5,172.1-63.4c64.7-12.2,132.3-14.9,201-7.9c85.6,8.7,177.7,36.4,264.4,74.7L619,570.3z"/>
					<path class="st1" d="M212.8,379.9c0.2,0,0.3-0.1,0.3-0.3s-0.2-0.2-0.4-0.2s-0.3,0.1-0.3,0.3
						C212.4,379.9,212.6,379.9,212.8,379.9z"/>
					<path class="st1" d="M204.6,383.7c-0.3,0.1-0.5,0.1-0.8,0.3c-0.2,0.1-0.3,0.3-0.3,0.4c0,0.1,0.1,0.2,0.2,0.2c0.1,0,0.3,0,0.4,0
						c0.1,0,0.3-0.1,0.4-0.1c0.1-0.1,0.2-0.1,0.3-0.2l0.1-0.1v-0.4C204.9,383.7,204.6,383.7,204.6,383.7z"/>
					<path class="st1" d="M295.6,414H295c-7.8-0.5-15.3-3.2-21.6-7.8l-18.7-13.9c-7.9-5.7-17.7-8.3-27.4-7.3l-6.8,0.7l-1.1-3.5
						c-1.2-3-4.2-4.8-7.4-4.4l-15.1,1.5c-3.3,0.2-6,2.7-6.5,6l-0.3,3.5l-7.9,0.8c-9.8,0.9-19,5.4-25.7,12.7l-19.4,21.8
						c-3,3.3-7.1,5.4-11.6,5.8c-7.5,0.8-13.1,6.8-12.4,13.5l2.1,20.1c1.1,10.4,11.1,18,22.8,17.5v0.1c1.2,11.1,12.3,19,24.8,17.6
						c12.5-1.3,21.7-11.4,20.6-22.4l68.4-7.3c1.2,11.1,12.3,19,24.8,17.6c12.5-1.3,21.7-11.4,20.6-22.4c0-0.1,0-0.1,0-0.2
						c11-2.3,18.8-11.6,17.7-21.7l-1.3-12.5C312.6,421.3,305.1,414.7,295.6,414z M212.6,378.9c0.5,0,1,0.2,1,0.6s-0.4,0.8-0.9,0.8
						s-1-0.2-1-0.6S212.1,379,212.6,378.9L212.6,378.9z M207.3,384.8l1.1-1.7c0,0,0-0.1,0-0.2l0,0l-1.2-1.3c-0.1-0.1,0-0.2,0.2-0.3
						l1-0.1c0.1,0,0.1,0,0.2,0l0.4,0.5l0,0l0.2,0.3l0.2,0.3l0,0c0-0.1,0.1-0.2,0.1-0.3s0.1-0.2,0.1-0.3l0.2-0.5
						c0-0.1,0.1-0.1,0.2-0.1l1-0.1c0.2,0,0.3,0.1,0.2,0.2l-1,1.6c0,0,0,0.1,0,0.2l0,0l1.3,1.3c0.1,0.1,0,0.3-0.2,0.3l-1,0.1
						c-0.1,0-0.1,0-0.2,0l-0.4-0.5l-0.3-0.3c-0.1-0.1-0.2-0.2-0.3-0.3l0,0c0,0.1-0.1,0.2-0.2,0.3l-0.1,0.3l-0.3,0.5
						c0,0.1-0.1,0.1-0.2,0.1l-0.9,0.1C207.3,385.1,207.1,385,207.3,384.8L207.3,384.8z M204.6,382.6c-0.2-0.1-0.4-0.1-0.6-0.1
						c-0.2,0-0.4,0.1-0.6,0.1l-0.4,0.2c-0.1,0.1-0.2,0.1-0.3,0l-0.3-0.4c-0.1-0.1,0-0.2,0-0.2l0,0c0.2-0.1,0.5-0.2,0.8-0.3
						c0.3-0.1,0.7-0.2,1.1-0.2c0.5-0.1,1,0,1.4,0.3s0.6,0.7,0.6,1.2l0.2,1.9c0,0.1-0.1,0.2-0.2,0.2l-0.8,0.1c-0.1,0-0.2,0-0.2-0.1
						l-0.1-0.2l0,0c-0.2,0.2-0.4,0.3-0.6,0.4c-0.2,0.1-0.5,0.2-0.7,0.2s-0.4,0-0.6,0c-0.2,0-0.3-0.1-0.5-0.2
						c-0.1-0.1-0.2-0.2-0.3-0.3s-0.1-0.3-0.1-0.4c0-0.4,0.2-0.8,0.6-1c0.6-0.3,1.2-0.5,1.8-0.6c0.1,0,0.2-0.1,0.2-0.2
						C204.6,382.8,204.6,382.7,204.6,382.6L204.6,382.6z M198.3,382.5c0-0.1,0.1-0.2,0.2-0.2h0.4c0.1,0,0.2-0.1,0.2-0.2v-0.7
						c0-0.1,0.1-0.2,0.2-0.2l0.8-0.1c0.1,0,0.2,0,0.2,0.1l0.1,0.6c0,0.1,0.1,0.2,0.2,0.1l0.7-0.1c0.1,0,0.2,0,0.2,0.1v0.5
						c0,0.1-0.1,0.2-0.2,0.2l-0.7,0.1c-0.1,0-0.2,0.1-0.2,0.2l0.1,1.3c0,0.2,0.1,0.3,0.2,0.4c0.1,0.1,0.3,0.1,0.5,0.1h0.2l0,0
						c0.1,0,0.2,0,0.3,0.1l0.2,0.4c0,0.1,0,0.2-0.1,0.2l-0.3,0.1c-0.2,0.1-0.4,0.1-0.6,0.1c-0.3,0-0.5,0-0.8,0
						c-0.2,0-0.4-0.1-0.5-0.2s-0.3-0.2-0.3-0.4c-0.1-0.2-0.1-0.4-0.1-0.6l-0.1-1.3c0-0.1-0.1-0.2-0.2-0.1h-0.2c-0.1,0-0.2,0-0.2-0.1
						L198.3,382.5z M195.6,381.3l0.8-0.6c0,0,0.1,0,0.2,0l0.3,0.2l0.4,0.2l0.2,0.1c0.1,0,0,0.1,0,0.1h-0.1l0,0v0.6
						c0,0.1-0.1,0.2-0.2,0.2l-1,0.1c-0.1,0-0.2,0-0.2-0.1v-0.6l0,0h-0.1C195.6,381.4,195.6,381.3,195.6,381.3L195.6,381.3z
						 M161.8,487.1c-5.3,0.6-10.1-2.8-10.6-7.5c-0.5-4.7,3.4-9,8.8-9.6c5.3-0.6,10.1,2.8,10.6,7.5
						C171.1,482.2,167.1,486.5,161.8,487.1L161.8,487.1z M206.9,401.7l1.2,11c0.7,6.2-3.1,6.6-7.7,7l-45.1,4.5
						c-1.9,0.2-3.1-1.3-2.1-2.6l9.9-11.3c6.5-7.4,16.9-12.4,28.5-13.6l6.4-0.4C206.4,396.1,206.6,398.2,206.9,401.7z M213.9,386.4
						l-17.1,1.7c-0.1,0-0.2,0-0.2-0.1l-0.2-2l0,0l-0.3-3.2c0-0.1,0.1-0.2,0.2-0.2l1-0.1c0.1,0,0.2,0,0.2,0.1l0.3,3.2l0,0l0.1,1
						c0,0.1,0.1,0.2,0.2,0.1l14.3-1.5c0.1,0,0.2-0.1,0.2-0.2l-0.1-0.9l0,0l-0.3-3.3c0-0.1,0.1-0.2,0.2-0.2l0,0l1-0.1
						c0.1,0,0.2,0,0.2,0.1l0.3,3.3l0,0l0.2,1.9C214.1,386.3,213.9,386.4,213.9,386.4L213.9,386.4z M221.6,417.2
						c-2.2,0.4-4.2-1-4.7-3.2l-1.6-14.9c0-2.3,1.8-4.2,4.1-4.2l11.3-1.2c8-1,16,1.3,22.2,6.4l11.5,9.8c1.2,1,0.4,2.7-1.3,2.9
						L221.6,417.2z M275,475.1c-5.3,0.6-10.1-2.8-10.6-7.5c-0.5-4.7,3.4-9,8.8-9.6s10.1,2.8,10.6,7.5
						C284.3,470.2,280.3,474.5,275,475.1L275,475.1z"/>
					<path class="st3" d="M142.8,925.3l-1.1,0.3l0,0l-1.1,0.3c-20,6.2-27.7,30.3-15.7,47.2l35.9,50.2c2.6,3.6,7.5,4.4,11.1,1.9
						c1.9-1.4,3.1-3.5,3.3-5.8l5.1-61.5C182.1,937.2,163.1,920.5,142.8,925.3z M152.1,963.4c-5.7,1.6-11.5-1.8-13.1-7.4
						c-1.6-5.7,1.8-11.5,7.4-13.1c5.7-1.6,11.5,1.8,13.1,7.4C161.1,956,157.8,961.8,152.1,963.4L152.1,963.4z"/>
					<path class="st3" d="M691.3,911.7l-1.1-0.1l0,0l-1.1-0.1c-20.9-1.3-36.7,18.4-31.5,38.5l15.6,59.7c1.1,4.3,5.5,6.8,9.7,5.7
						c2.3-0.6,4.1-2.1,5.2-4.3l26.7-55.6C723.8,936.8,712,914.4,691.3,911.7z M686.5,950.6c-5.9-0.6-10.1-5.8-9.6-11.6
						c0.6-5.9,5.8-10.1,11.6-9.6c5.9,0.6,10.1,5.8,9.6,11.6C697.5,946.9,692.3,951.1,686.5,950.6L686.5,950.6L686.5,950.6z"/>
					<circle class="st3" cx="218.6" cy="997.4" r="14.9"/>
					<circle class="st3" cx="276.9" cy="982.5" r="14.9"/>
					<circle class="st3" cx="335.3" cy="975.6" r="14.9"/>
					<circle class="st3" cx="395.4" cy="971.2" r="14.9"/>
					<circle class="st3" cx="458.5" cy="971.2" r="14.9"/>
					
						<ellipse transform="matrix(0.9239 -0.3827 0.3827 0.9239 -333.6306 273.8486)" class="st3" cx="521.5" cy="975.6" rx="14.9" ry="14.9"/>
					<circle class="st3" cx="576.3" cy="982.5" r="14.9"/>
					<circle class="st3" cx="631.3" cy="993.6" r="14.9"/>
					<circle class="st3" cx="732.8" cy="1012.3" r="14.9"/>
					<circle class="st3" cx="788" cy="993.6" r="14.9"/>
					<circle class="st3" cx="837.5" cy="968.7" r="14.9"/>
					<circle class="st3" cx="852.3" cy="917.7" r="14.9"/>
					<circle class="st3" cx="862.2" cy="867.4" r="14.9"/>
					<circle class="st3" cx="874" cy="817.2" r="14.9"/>
					<path class="st3" d="M775.5,580.9l27.6,51.6c4.9,9.1,14.9,14.1,25,12.7c27.8-3.9,76.8-3.6,80.7-13.9
						c5.4-14.2,3.5-62.3,5.3-104.4c0.6-13.5-9.8-24.9-23.3-25.6c-4-0.2-7.9,0.6-11.6,2.3l-92.7,43.6c-12.2,5.8-17.5,20.3-11.7,32.6
						C775,580.1,775.3,580.5,775.5,580.9z"/>
					<path class="st3" d="M758,576.8l39.7,74.2c1.9,3.5,2.1,7.8,0.5,11.5l-19.3,45.6c-2.9,6.8-10.7,9.9-17.5,7.1
						c-1.2-0.5-2.2-1.1-3.2-1.9l-81.4-66.5c-5.7-4.7-6.5-13-1.9-18.7c0.5-0.6,1-1.1,1.5-1.6l61-53.5c5.5-4.8,13.9-4.3,18.8,1.2
						C757,575.1,757.5,575.9,758,576.8z"/>
					<path class="st2" d="M830.2,656.8c14.1-1.6,38.9-4.8,56.3-7.2c8.9-1.2,17.1,5.1,18.3,14c0.1,1,0.2,2,0.1,3l-4,86.1
						c-0.5,11.8-9.5,21.6-21.2,23.1l-8.8,1.2c-5.2,0.7-10.5-0.3-15-2.8l-57.6-31.9c-9.2-5.1-12.7-16.5-7.9-25.9l24.8-48.9
						C817.8,661.5,823.7,657.5,830.2,656.8z"/>
					<path class="st1" d="M1,3327.8c0,0,687.9-222.8,969.3,0v278.4c0,0-483.8,385-969.3,63L1,3327.8z"/>
					<path class="st4" d="M-69.3,3315.6c0,0,274.8-201,1164.7-141.6"/>
					<path class="st3" d="M160.7,1563.7c-1.6-0.3-2.8-1.6-2.9-3.2c-1.7-16.6-16.5-28.7-33.2-27.1c-10.2,1-19.2,7.2-23.9,16.4
						c-0.8,1.5-2.4,2.2-4,1.8c-12.3-3-24.7,4.5-27.7,16.8s4.5,24.7,16.8,27.7c1.8,0.4,3.6,0.7,5.4,0.7h60.7l6.1-0.2
						c9.1,0,16.5-7.5,16.5-16.6C174.5,1572,168.7,1565.1,160.7,1563.7L160.7,1563.7z"/>
					<path class="st5" d="M160.7,1553.5c-1.6-0.3-2.8-1.6-2.9-3.2c-1.7-16.6-16.5-28.7-33.2-27.1c-10.2,1-19.2,7.2-23.9,16.4
						c-0.8,1.5-2.4,2.2-4,1.8c-12.3-3-24.7,4.5-27.7,16.8s4.5,24.7,16.8,27.7c1.8,0.4,3.6,0.7,5.4,0.7h60.7l6.1-0.2
						c9.1,0,16.5-7.5,16.5-16.6C174.5,1561.8,168.7,1554.9,160.7,1553.5L160.7,1553.5z"/>
				</g>
			</g>
		</g>
	</g>
</g>
<path class="st3" d="M920.9,2378.9c-5.5-0.9-9.6-5.6-10.2-11.2c-5.2-53.3-50.1-95-104.8-95c-41,0-76.5,23.4-93.9,57.6
	c-2.6,5.2-8.4,7.7-14,6.3c-8.2-2-16.8-2.8-25.7-2c-39,3.3-70.3,35.1-72.8,74.2c-3,46.4,33.8,85,79.6,85h211.3l20.9-0.6
	c31.8,0,57.6-25.8,57.6-57.6C968.8,2407.2,948.1,2383.5,920.9,2378.9z"/>
<path class="st3" d="M35.4,2857.9c4.2-0.7,7.3-4.2,7.7-8.5c3.9-40.4,38-71.9,79.4-71.9c31,0,57.9,17.8,71.1,43.7
	c2,3.9,6.4,5.8,10.6,4.8c6.2-1.5,12.7-2.1,19.5-1.5c29.6,2.5,53.2,26.6,55.1,56.2c2.3,35.2-25.6,64.4-60.3,64.4H58.6l-15.8-0.4
	c-24.1,0-43.6-19.5-43.6-43.6C-0.9,2879.4,14.8,2861.4,35.4,2857.9z"/>
</svg>
