<svg width="444" height="553" viewBox="0 0 444 553" fill="none" xmlns="http://www.w3.org/2000/svg">
<g clip-path="url(#clip0)">
<path d="M396.877 275.217H278.485C269.688 275.217 262.55 268.087 262.55 259.301V40.5533C262.55 31.767 269.688 24.6373 278.485 24.6373H396.877C405.674 24.6373 412.812 31.767 412.812 40.5533V259.285C412.812 268.087 405.674 275.217 396.877 275.217Z" fill="#E6E6E6"/>
<path d="M264.371 147.613L264.143 147.483C263.167 146.915 262.826 145.664 263.395 144.69L339.039 13.8372C339.608 12.8627 340.86 12.5217 341.836 13.0901L342.063 13.22C343.039 13.7885 343.38 15.039 342.811 16.0135L267.168 146.866C266.598 147.84 265.346 148.181 264.371 147.613Z" fill="#C7C7C7"/>
<path d="M290.583 50.3303L290.355 50.2004C289.379 49.632 289.038 48.3814 289.607 47.407L311.721 9.14359C312.29 8.16914 313.542 7.82808 314.518 8.39651L314.746 8.52644C315.721 9.09487 316.063 10.3454 315.494 11.3199L293.379 49.5832C292.81 50.5739 291.558 50.8987 290.583 50.3303Z" fill="#C7C7C7"/>
<path d="M292.339 149.156L292.111 149.026C291.135 148.457 290.794 147.207 291.363 146.232L363.933 20.6908C364.503 19.7164 365.755 19.3753 366.73 19.9438L366.958 20.0737C367.934 20.6421 368.275 21.8927 367.706 22.8671L295.135 148.409C294.566 149.383 293.314 149.708 292.339 149.156Z" fill="#C7C7C7"/>
<path d="M330.73 150.358L330.502 150.228C329.526 149.659 329.185 148.409 329.754 147.434L402.324 21.8926C402.894 20.9182 404.146 20.5771 405.121 21.1455L405.349 21.2755C406.324 21.8439 406.666 23.0944 406.097 24.0689L333.526 149.61C332.957 150.601 331.705 150.926 330.73 150.358Z" fill="#C7C7C7"/>
<path d="M261.119 96.032L261.2 95.7884C261.574 94.7165 262.745 94.1643 263.818 94.5541L418.91 149.87C419.967 150.244 420.536 151.413 420.146 152.485L420.065 152.729C419.691 153.801 418.52 154.353 417.447 153.963L262.355 98.6468C261.298 98.2732 260.745 97.1039 261.119 96.032Z" fill="#C7C7C7"/>
<path d="M254.826 148.539V148.279C254.826 147.142 255.736 146.232 256.875 146.232H408.146C409.284 146.232 410.195 147.142 410.195 148.279V148.539C410.195 149.675 409.284 150.585 408.146 150.585H256.875C255.753 150.585 254.826 149.675 254.826 148.539Z" fill="#C7C7C7"/>
<path d="M271.184 212.69L271.07 212.446C270.582 211.423 271.021 210.205 272.046 209.718L414.731 142.042C415.756 141.555 416.975 141.993 417.463 143.017L417.577 143.26C418.065 144.283 417.626 145.501 416.601 145.989L273.916 213.664C272.891 214.135 271.672 213.697 271.184 212.69Z" fill="#C7C7C7"/>
<path d="M402.601 278.498H402.341C401.202 278.498 400.292 277.588 400.292 276.451V148.279C400.292 147.142 401.202 146.232 402.341 146.232H402.601C403.739 146.232 404.65 147.142 404.65 148.279V276.451C404.65 277.588 403.739 278.498 402.601 278.498Z" fill="#C7C7C7"/>
<path d="M405.219 274.421L405.024 274.584C404.146 275.298 402.861 275.168 402.146 274.291L301.071 150.146C300.355 149.269 300.485 147.986 301.363 147.272L301.558 147.109C302.436 146.395 303.721 146.525 304.437 147.402L405.511 271.547C406.227 272.407 406.097 273.707 405.219 274.421Z" fill="#C7C7C7"/>
<path d="M424.227 263.28L424.032 263.442C423.154 264.157 421.869 264.027 421.154 263.15L329.266 150.276C328.551 149.399 328.681 148.116 329.559 147.402L329.754 147.239C330.632 146.525 331.917 146.655 332.632 147.532L424.52 260.405C425.235 261.282 425.105 262.582 424.227 263.28Z" fill="#C7C7C7"/>
<path d="M426.917 234.13L426.721 234.292C425.843 235.007 424.559 234.877 423.843 234L340.948 132.186C340.232 131.309 340.362 130.026 341.24 129.312L341.435 129.149C342.313 128.435 343.598 128.565 344.313 129.442L427.209 231.255C427.941 232.132 427.795 233.415 426.917 234.13Z" fill="#C7C7C7"/>
<path d="M281.2 52.7178C267.916 52.7178 258.598 49.1123 258.387 49.0311C257.119 48.5114 256.501 47.066 257.005 45.7992C257.525 44.5324 258.972 43.9153 260.241 44.4187C262.062 45.1496 305.233 61.7152 337.266 16.6956C338.063 15.575 339.608 15.3152 340.73 16.111C341.852 16.9068 342.112 18.4659 341.315 19.5703C321.998 46.7412 298.306 52.7178 281.2 52.7178Z" fill="#C7C7C7"/>
<path d="M388.877 224.481H286.485C281.997 224.481 278.355 220.843 278.355 216.36V205.316C278.355 200.834 281.997 197.196 286.485 197.196H388.877C393.365 197.196 397.007 200.834 397.007 205.316V216.36C397.007 220.843 393.365 224.481 388.877 224.481Z" fill="#1F2026"/>
<path d="M379.918 216.701C383.384 216.701 386.194 214.076 386.194 210.838C386.194 207.6 383.384 204.975 379.918 204.975C376.451 204.975 373.641 207.6 373.641 210.838C373.641 214.076 376.451 216.701 379.918 216.701Z" fill="#E6E6E6"/>
<path d="M388.877 261.12H286.485C281.997 261.12 278.355 257.482 278.355 252.999V241.956C278.355 237.473 281.997 233.835 286.485 233.835H388.877C393.365 233.835 397.007 237.473 397.007 241.956V252.999C397.007 257.482 393.365 261.12 388.877 261.12Z" fill="#1F2026"/>
<path d="M379.918 253.341C383.384 253.341 386.194 250.716 386.194 247.478C386.194 244.24 383.384 241.615 379.918 241.615C376.451 241.615 373.641 244.24 373.641 247.478C373.641 250.716 376.451 253.341 379.918 253.341Z" fill="#E6E6E6"/>
<path d="M406.601 0H268.777C253.346 0 240.842 12.4892 240.842 27.9017V290.24C240.842 305.652 253.346 318.141 268.777 318.141H406.601C422.032 318.141 434.536 305.652 434.536 290.24V27.9017C434.536 12.4892 422.016 0 406.601 0ZM337.689 308.218C331.234 308.218 325.982 302.989 325.982 296.525C325.982 290.077 331.217 284.832 337.689 284.832C344.145 284.832 349.397 290.061 349.397 296.525C349.38 302.989 344.145 308.218 337.689 308.218ZM412.812 259.285C412.812 268.071 405.674 275.201 396.877 275.201H278.485C269.688 275.201 262.55 268.071 262.55 259.285V40.5533C262.55 31.767 269.688 24.6373 278.485 24.6373H396.877C405.674 24.6373 412.812 31.767 412.812 40.5533V259.285Z" fill="#1F2026"/>
<path d="M-11 553V474.053C61.2289 458.917 76.0585 428.709 124.206 356.031C161.653 299.481 176.743 246.454 176.89 245.918L248.598 265.7C247.899 268.25 230.923 328.828 187.621 394.928C128.97 484.447 80.5463 533.82 -11 553Z" fill="#DAB11B"/>
<path d="M250.875 193.526V236.791C250.875 239.568 248.631 241.81 245.85 241.81C243.07 241.81 240.826 239.568 240.826 236.791V83.9651H227.996C215.687 83.9651 205.703 93.937 205.703 106.231C205.703 119.094 200.272 131.356 190.727 139.996C177.898 151.624 170.58 168.141 170.58 185.454V241.826C170.58 273.642 196.402 299.432 228.256 299.432H228.305C260.159 299.432 285.981 273.642 285.981 241.826V193.542C285.981 183.862 278.111 176.002 268.42 176.002C258.745 175.986 250.875 183.846 250.875 193.526Z" fill="#E8C556"/>
<mask id="mask0" mask-type="alpha" maskUnits="userSpaceOnUse" x="170" y="83" width="116" height="217">
<path d="M250.875 193.526V236.791C250.875 239.568 248.631 241.81 245.85 241.81C243.07 241.81 240.826 239.568 240.826 236.791V83.9651H227.996C215.687 83.9651 205.703 93.937 205.703 106.231C205.703 119.094 200.272 131.356 190.727 139.996C177.898 151.624 170.58 168.141 170.58 185.454V241.826C170.58 273.642 196.402 299.432 228.256 299.432H228.305C260.159 299.432 285.981 273.642 285.981 241.826V193.542C285.981 183.862 278.111 176.002 268.42 176.002C258.745 175.986 250.875 183.846 250.875 193.526Z" fill="#E8C556"/>
</mask>
<g mask="url(#mask0)">
<path d="M245.866 241.826H244.647C234.126 241.826 225.606 233.316 225.606 222.808V83.9651H245.85V241.826H245.866Z" fill="#DAB11B"/>
</g>
<path d="M376.552 98.0459C376.422 98.0459 376.291 98.0459 376.161 98.0459C376.031 98.0459 375.901 98.0459 375.771 98.0459C368.324 98.2895 363.364 105.841 365.917 112.776L373.495 133.402C374.405 135.887 377.918 135.887 378.828 133.402L386.405 112.776C388.958 105.841 383.999 98.3058 376.552 98.0459ZM376.161 112.013C374.064 112.013 372.356 110.308 372.356 108.213C372.356 106.118 374.064 104.412 376.161 104.412C378.259 104.412 379.966 106.118 379.966 108.213C379.95 110.308 378.259 112.013 376.161 112.013Z" fill="#E8C556"/>
</g>
<defs>
<clipPath id="clip0">
<rect width="455" height="553" fill="white" transform="translate(-11)"/>
</clipPath>
</defs>
</svg>
