<svg width="707" height="909" viewBox="0 0 707 909" fill="none" xmlns="http://www.w3.org/2000/svg">
<g clip-path="url(#clip0)">
<path d="M371.994 330.87C371.994 335.6 368.166 339.43 363.438 339.43H198.528C193.8 339.43 189.971 335.6 189.971 330.87V8.56065C189.971 3.83019 186.143 0 181.415 0C176.687 0 172.859 3.83019 172.859 8.56065V339.43V356.552V593.647C172.859 598.378 169.031 602.208 164.302 602.208H-169.444C-174.172 602.208 -178 606.038 -178 610.769C-178 615.499 -174.172 619.329 -169.444 619.329H164.335C169.063 619.329 172.892 623.159 172.892 627.89V757.429C172.892 762.159 169.063 765.99 164.335 765.99H101.022C96.2935 765.99 92.4653 769.82 92.4653 774.55C92.4653 779.281 96.2935 783.111 101.022 783.111H363.454C368.182 783.111 372.01 786.941 372.01 791.672V900.472C372.01 905.203 375.839 909.033 380.567 909.033C385.295 909.033 389.123 905.203 389.123 900.472V791.672C389.123 786.941 392.951 783.111 397.679 783.111H698.46C703.188 783.111 707.016 779.281 707.016 774.55C707.016 769.82 703.188 765.99 698.46 765.99H397.663C392.935 765.99 389.107 762.159 389.107 757.429V627.89C389.107 623.159 392.935 619.329 397.663 619.329H427.978C432.706 619.329 436.535 615.499 436.535 610.769C436.535 606.038 432.706 602.208 427.978 602.208H397.663C392.935 602.208 389.107 598.378 389.107 593.647V336.697C389.107 313.994 398.121 292.208 414.17 276.15L529.673 160.59C533.01 157.251 533.01 151.833 529.673 148.494C526.335 145.155 520.92 145.155 517.583 148.494L397.958 268.179C381.336 284.793 371.994 307.349 371.994 330.87ZM198.544 356.535H363.454C368.182 356.535 372.01 360.366 372.01 365.096V593.647C372.01 598.378 368.182 602.208 363.454 602.208H198.544C193.816 602.208 189.988 598.378 189.988 593.647V365.096C189.988 360.366 193.816 356.535 198.544 356.535ZM189.988 757.413V627.874C189.988 623.143 193.816 619.313 198.544 619.313H363.454C368.182 619.313 372.01 623.143 372.01 627.874V757.413C372.01 762.143 368.182 765.973 363.454 765.973H198.544C193.816 765.973 189.988 762.143 189.988 757.413Z" fill="#1F2026"/>
<path d="M152.147 540.237C166.062 540.237 177.342 528.952 177.342 515.03C177.342 501.108 166.062 489.823 152.147 489.823C138.232 489.823 126.952 501.108 126.952 515.03C126.952 528.952 138.232 540.237 152.147 540.237Z" fill="#E8C556"/>
<path d="M124.122 599.36C138.037 599.36 149.317 588.074 149.317 574.153C149.317 560.231 138.037 548.945 124.122 548.945C110.208 548.945 98.9276 560.231 98.9276 574.153C98.9276 588.074 110.208 599.36 124.122 599.36Z" fill="#E8C556"/>
<path d="M96.0973 658.482C110.012 658.482 121.292 647.197 121.292 633.275C121.292 619.353 110.012 608.068 96.0973 608.068C82.1827 608.068 70.9027 619.353 70.9027 633.275C70.9027 647.197 82.1827 658.482 96.0973 658.482Z" fill="#E8C556"/>
<path d="M211.272 568.276C225.187 568.276 236.467 556.99 236.467 543.069C236.467 529.147 225.187 517.862 211.272 517.862C197.358 517.862 186.078 529.147 186.078 543.069C186.078 556.99 197.358 568.276 211.272 568.276Z" fill="#E8C556"/>
<path d="M183.248 627.415C197.162 627.415 208.442 616.129 208.442 602.208C208.442 588.286 197.162 577 183.248 577C169.333 577 158.053 588.286 158.053 602.208C158.053 616.129 169.333 627.415 183.248 627.415Z" fill="#E8C556"/>
<path d="M155.223 686.538C169.137 686.538 180.417 675.252 180.417 661.33C180.417 647.409 169.137 636.123 155.223 636.123C141.308 636.123 130.028 647.409 130.028 661.33C130.028 675.252 141.308 686.538 155.223 686.538Z" fill="#E8C556"/>
<path d="M270.398 596.331C284.312 596.331 295.592 585.046 295.592 571.124C295.592 557.203 284.312 545.917 270.398 545.917C256.483 545.917 245.203 557.203 245.203 571.124C245.203 585.046 256.483 596.331 270.398 596.331Z" fill="#E8C556"/>
<path d="M242.373 655.454C256.288 655.454 267.568 644.168 267.568 630.247C267.568 616.325 256.288 605.04 242.373 605.04C228.458 605.04 217.178 616.325 217.178 630.247C217.178 644.168 228.458 655.454 242.373 655.454Z" fill="#E8C556"/>
<path d="M214.348 714.577C228.263 714.577 239.543 703.291 239.543 689.369C239.543 675.448 228.263 664.162 214.348 664.162C200.434 664.162 189.154 675.448 189.154 689.369C189.154 703.291 200.434 714.577 214.348 714.577Z" fill="#E8C556"/>
<path d="M532.503 366.798L288.279 533.919C265.67 549.387 234.831 543.593 219.371 520.972L133.464 395.296C118.003 372.675 123.795 341.82 146.405 326.352L390.628 159.231C413.238 143.763 444.077 149.558 459.537 172.179L545.444 297.855C560.888 320.46 555.096 351.33 532.503 366.798Z" fill="#1F2026"/>
<path d="M386.816 161.818L150.167 323.75C125.48 340.642 119.149 374.377 136.032 399.077L191.035 479.527C207.918 504.227 241.637 510.562 266.324 493.669L502.973 331.737C527.66 314.845 533.992 281.11 517.108 256.41L462.105 175.96C445.222 151.244 411.504 144.925 386.816 161.818Z" fill="#1F2026"/>
<path d="M336.362 507.959L321.703 517.993C315.977 521.921 308.157 520.448 304.231 514.719L170.045 318.43C166.118 312.701 167.591 304.877 173.317 300.949L187.976 290.915C193.702 286.986 201.522 288.459 205.448 294.188L339.634 490.478C343.56 496.207 342.088 504.031 336.362 507.959Z" fill="#DAB11B"/>
<path d="M505.542 392.186L490.883 402.22C485.157 406.148 477.337 404.675 473.41 398.946L339.225 202.657C335.298 196.928 336.771 189.104 342.497 185.175L357.155 175.142C362.882 171.213 370.702 172.686 374.628 178.415L508.814 374.704C512.74 380.45 511.284 388.274 505.542 392.186Z" fill="#DAB11B"/>
<path d="M481.116 356.454L466.457 366.487C460.731 370.416 452.911 368.943 448.985 363.214L339.241 202.673C335.315 196.944 336.787 189.12 342.513 185.192L357.172 175.158C362.898 171.229 370.718 172.703 374.644 178.432L484.388 338.972C488.314 344.701 486.842 352.525 481.116 356.454Z" fill="#E8C556"/>
<path d="M228.212 237.713L220.461 243.017L235.653 265.241L243.404 259.938L228.212 237.713Z" fill="#1F2026"/>
<path d="M286.122 198.108L278.371 203.412L293.563 225.637L301.314 220.333L286.122 198.108Z" fill="#1F2026"/>
<path d="M288.607 196.404L217.996 244.723C215.69 246.295 212.565 245.705 210.978 243.414L207.199 237.881C205.628 235.573 206.217 232.447 208.507 230.859L279.118 182.54C281.425 180.969 284.549 181.558 286.136 183.849L289.915 189.382C291.502 191.69 290.913 194.833 288.607 196.404Z" fill="#DAB11B"/>
<path d="M278.283 203.459L217.996 244.707C215.69 246.278 212.565 245.689 210.978 243.398L207.199 237.865C205.628 235.557 206.217 232.431 208.507 230.843L268.795 189.595C271.101 188.024 274.226 188.613 275.813 190.904L279.592 196.437C281.163 198.745 280.574 201.888 278.283 203.459Z" fill="#E8C556"/>
<path d="M209.293 375.834L268.925 387.03L263.559 379.189L203.943 367.993L209.293 375.834Z" fill="#E8C556"/>
<path d="M315.208 454.746L297.997 429.571L238.365 418.375L279.788 478.971C283.715 484.7 291.535 486.173 297.261 482.245L311.92 472.211C317.662 468.299 319.135 460.475 315.208 454.746Z" fill="#E8C556"/>
<path d="M190.053 347.648L249.653 358.844L205.465 294.205C201.538 288.476 193.718 287.003 187.992 290.931L173.333 300.965C167.607 304.893 166.135 312.718 170.061 318.446L190.053 347.697V347.648Z" fill="#E8C556"/>
</g>
<defs>
<clipPath id="clip0">
<rect width="885" height="909" fill="white" transform="translate(-178)"/>
</clipPath>
</defs>
</svg>
