<svg width="418" height="648" viewBox="0 0 418 648" fill="none" xmlns="http://www.w3.org/2000/svg">
<g clip-path="url(#clip0)">
<path d="M355.563 281.714C356.164 281.731 356.668 281.406 356.684 280.983C356.7 280.561 356.229 280.187 355.628 280.171C355.027 280.154 354.523 280.479 354.507 280.902C354.49 281.324 354.962 281.682 355.563 281.714Z" fill="#1F2026"/>
<path d="M327.048 290.149C325.83 290.263 324.952 290.441 324.432 290.701C323.782 291.01 323.441 291.384 323.425 291.839C323.409 292.213 323.555 292.489 323.88 292.684C324.205 292.879 324.627 292.976 325.18 293.009C325.716 293.025 326.171 292.96 326.561 292.798C326.886 292.668 327.211 292.489 327.568 292.278C327.714 292.18 327.812 292.05 327.812 291.904L327.861 290.701C327.877 290.376 327.487 290.116 327.048 290.149Z" fill="#1F2026"/>
<path d="M611.3 426.464L609.35 426.074C583.468 420.808 560.023 408.831 542.215 391.8L487.38 339.325C465.202 318.101 434.022 305.409 400.975 304.157L378.553 303.312L376.376 291.66C374.605 282.153 365.246 274.986 354.052 274.548L304.009 272.565C292.473 272.11 282.335 278.919 280.125 288.621L277.639 299.477L251.513 298.486C218.14 297.218 185.759 307.716 161.891 327.526L88.9394 388.095C78.1835 397.033 63.5931 401.811 48.5479 401.323C23.5753 400.527 2.7621 417.233 2.0797 438.652L0.0162524 503.202C-1.05609 536.793 28.4171 565.216 66.8102 568.873C66.8102 568.954 66.7939 569.036 66.7939 569.117C65.6566 604.691 98.3793 634.609 139.876 635.942C181.372 637.274 215.931 609.501 217.068 573.927L443.868 581.191C442.731 616.765 475.454 646.684 516.95 648.016C558.447 649.349 593.005 621.576 594.143 586.002C594.143 585.839 594.126 585.677 594.126 585.514C631.138 582.963 660.628 557.026 661.668 524.393L662.951 484.074C663.845 456.854 642.219 432.753 611.3 426.464ZM355.693 278.659C357.447 278.724 358.812 279.797 358.763 281.048C358.715 282.299 357.252 283.258 355.498 283.193C353.743 283.128 352.378 282.056 352.427 280.804C352.476 279.553 353.954 278.594 355.693 278.659ZM335.302 294.992L339.51 290.165C339.656 290.003 339.656 289.807 339.526 289.629L336.049 284.981C335.789 284.623 336.147 284.201 336.683 284.217L340.03 284.347C340.29 284.363 340.517 284.477 340.631 284.64L341.752 286.265C341.752 286.281 341.768 286.281 341.768 286.297C341.963 286.622 342.158 286.964 342.37 287.305C342.581 287.646 342.792 287.987 343.003 288.329H343.133C343.312 288.004 343.507 287.679 343.718 287.354C343.929 287.029 344.124 286.704 344.303 286.378L345.262 284.867C345.375 284.672 345.635 284.558 345.928 284.575L349.08 284.688C349.616 284.705 349.941 285.143 349.665 285.485L345.684 290.246C345.554 290.409 345.554 290.62 345.684 290.783L349.421 295.495C349.697 295.853 349.34 296.292 348.787 296.275L345.457 296.145C345.213 296.129 344.985 296.032 344.856 295.869L343.604 294.163C343.361 293.822 343.133 293.48 342.906 293.123C342.678 292.765 342.451 292.424 342.207 292.083H342.077C341.866 292.408 341.655 292.733 341.427 293.058C341.2 293.383 340.989 293.708 340.777 294.049L339.656 295.625C339.526 295.804 339.283 295.902 339.006 295.902L335.854 295.788C335.318 295.772 335.009 295.333 335.302 294.992ZM327.406 286.785C327.048 286.46 326.431 286.297 325.57 286.265C324.887 286.232 324.221 286.313 323.539 286.46C323.051 286.574 322.531 286.736 321.979 286.915C321.638 287.029 321.215 286.931 321.037 286.671L320.094 285.273C319.915 285.013 320.062 284.705 320.403 284.575C321.248 284.266 322.125 284.022 323.019 283.843C324.14 283.6 325.326 283.518 326.577 283.567C328.608 283.648 330.135 284.136 331.175 285.013C332.199 285.907 332.686 287.24 332.605 289.027L332.329 295.138C332.312 295.43 331.987 295.642 331.597 295.625L329.079 295.528C328.738 295.512 328.462 295.333 328.413 295.089L328.234 294.309H328.104C327.406 294.715 326.691 295.04 325.927 295.284C325.18 295.528 324.351 295.625 323.457 295.593C322.743 295.56 322.093 295.447 321.524 295.252C320.955 295.057 320.468 294.78 320.078 294.455C319.688 294.114 319.395 293.74 319.184 293.318C318.973 292.895 318.892 292.424 318.908 291.936C318.957 290.718 319.704 289.807 321.134 289.174C322.45 288.589 324.481 288.231 327.211 288.085C327.649 288.069 327.958 287.744 327.828 287.435C327.763 287.175 327.617 286.964 327.406 286.785ZM306.95 283.713C306.966 283.437 307.259 283.226 307.616 283.226L308.818 283.21C309.16 283.21 309.436 283.031 309.484 282.787L309.972 280.593C310.021 280.333 310.329 280.154 310.687 280.171L313.238 280.268C313.628 280.284 313.936 280.528 313.92 280.821L313.823 282.868C313.806 283.161 314.115 283.405 314.505 283.421L316.877 283.518C317.267 283.535 317.576 283.778 317.56 284.071L317.495 285.712C317.478 286.005 317.153 286.216 316.763 286.2L314.391 286.102C314.001 286.086 313.676 286.313 313.66 286.59L313.481 290.718C313.449 291.368 313.611 291.855 313.969 292.148C314.326 292.456 314.814 292.619 315.431 292.635C315.691 292.651 315.951 292.635 316.211 292.603C316.601 292.554 316.991 292.733 317.056 293.025L317.413 294.504C317.478 294.78 317.251 295.04 316.877 295.089C316.617 295.122 316.341 295.17 316.032 295.203C315.464 295.268 314.781 295.3 314.034 295.268C313.059 295.235 312.23 295.089 311.548 294.845C310.866 294.602 310.329 294.277 309.907 293.87C309.484 293.464 309.192 292.976 309.013 292.424C308.835 291.871 308.77 291.254 308.786 290.588L308.965 286.411C308.981 286.118 308.672 285.875 308.282 285.858L307.535 285.826C307.145 285.81 306.836 285.566 306.852 285.273L306.95 283.713ZM299.086 278.562L301.848 276.888C302.011 276.79 302.238 276.807 302.384 276.904L303.327 277.57L304.48 278.383L305.033 278.773C305.244 278.919 305.098 279.179 304.805 279.163L304.578 279.147C304.48 279.147 304.415 279.195 304.415 279.26L304.334 281.097C304.318 281.406 303.977 281.633 303.57 281.617L300.337 281.487C299.931 281.471 299.606 281.211 299.622 280.918L299.703 279.082C299.703 279.017 299.638 278.952 299.541 278.952L299.313 278.935C298.989 278.968 298.875 278.708 299.086 278.562ZM141.062 598.921C123.384 598.353 109.444 585.612 109.931 570.449C110.419 555.287 125.139 543.456 142.833 544.025C160.51 544.594 174.451 557.335 173.963 572.497C173.476 587.659 158.739 599.474 141.062 598.921ZM326.837 348.003L325.7 383.528C325.066 403.387 312.669 402.981 297.364 402.493L147.837 396.854C141.5 396.659 138.137 391.28 142.199 387.867L179.552 356.454C204.07 335.831 240.578 324.536 278.76 325.755L299.768 327.283C327.471 330.354 327.194 337.033 326.837 348.003ZM356.261 302.711L299.46 300.582C299.07 300.566 298.761 300.322 298.777 300.029L299.07 293.513L299.086 293.578L299.525 283.144C299.541 282.852 299.866 282.641 300.256 282.657L303.505 282.787C303.895 282.803 304.204 283.047 304.188 283.34L303.749 293.789L303.733 293.724L303.587 297.007C303.57 297.299 303.879 297.543 304.269 297.559L351.745 299.282C352.134 299.298 352.459 299.071 352.476 298.794L352.606 295.837L353.077 285.143C353.093 284.851 353.418 284.64 353.808 284.656L357.057 284.786C357.447 284.802 357.756 285.046 357.74 285.338L357.269 296.048L356.992 302.256C356.976 302.516 356.651 302.727 356.261 302.711ZM367.96 403.891C360.096 403.631 353.873 398.219 354.084 391.8L355.611 343.908C355.823 337.212 362.647 332.012 370.835 332.272L408.286 333.474C435.793 334.352 461.481 345.403 478.086 363.507L511.231 399.649C514.594 403.322 511.329 408.49 505.756 408.311L367.96 403.891ZM516.365 610.931C498.688 610.362 484.747 597.621 485.235 582.459C485.722 567.297 500.443 555.466 518.136 556.035C535.83 556.603 549.754 569.344 549.267 584.507C548.763 599.669 534.043 611.5 516.365 610.931Z" fill="#1F2026"/>
<path d="M351.793 89.1216C366.797 89.1216 378.959 76.9563 378.959 61.9496C378.959 46.9429 366.797 34.7776 351.793 34.7776C336.79 34.7776 324.627 46.9429 324.627 61.9496C324.627 76.9563 336.79 89.1216 351.793 89.1216Z" fill="#1F2026"/>
<path d="M369.162 157.474C384.165 157.474 396.328 145.309 396.328 130.302C396.328 115.295 384.165 103.13 369.162 103.13C354.159 103.13 341.996 115.295 341.996 130.302C341.996 145.309 354.159 157.474 369.162 157.474Z" fill="#1F2026"/>
<path d="M386.531 225.827C401.534 225.827 413.697 213.661 413.697 198.655C413.697 183.648 401.534 171.483 386.531 171.483C371.527 171.483 359.365 183.648 359.365 198.655C359.365 213.661 371.527 225.827 386.531 225.827Z" fill="#1F2026"/>
<path d="M420.163 71.7329C435.167 71.7329 447.329 59.5676 447.329 44.5609C447.329 29.5542 435.167 17.3889 420.163 17.3889C405.16 17.3889 392.997 29.5542 392.997 44.5609C392.997 59.5676 405.16 71.7329 420.163 71.7329Z" fill="#1F2026"/>
<path d="M437.532 140.085C452.535 140.085 464.698 127.92 464.698 112.913C464.698 97.9068 452.535 85.7415 437.532 85.7415C422.529 85.7415 410.366 97.9068 410.366 112.913C410.366 127.92 422.529 140.085 437.532 140.085Z" fill="#1F2026"/>
</g>
<defs>
<clipPath id="clip0">
<rect width="663" height="648" fill="white"/>
</clipPath>
</defs>
</svg>
